<svg width="48" height="48" viewBox="0 0 48 48" fill="none" xmlns="http://www.w3.org/2000/svg">
<g clip-path="url(#clip0_102_627)">
<path d="M30.3714 11.7691C30.9071 11.7691 31.3429 11.3333 31.3429 10.7976V7.20583C31.3429 6.67013 30.9071 6.23438 30.3714 6.23438H10.7094C10.1737 6.23438 9.73799 6.67013 9.73799 7.20583V10.7976C9.73799 11.3333 10.1737 11.7691 10.7094 11.7691H30.3714ZM11.1443 7.64055H29.9366V10.3628H11.1443V7.64055ZM7.61621 15.1272C7.61621 15.5157 7.93093 15.8304 8.31935 15.8304H14.4467C14.8352 15.8304 15.1499 15.5157 15.1499 15.1272C15.1499 14.7388 14.8352 14.4241 14.4467 14.4241H8.31935C8.13286 14.4241 7.95402 14.4982 7.82215 14.6301C7.69029 14.7619 7.61621 14.9408 7.61621 15.1272ZM8.31935 19.2177H31.1087C31.4971 19.2177 31.8118 18.903 31.8118 18.5146C31.8118 18.1262 31.4971 17.8114 31.1087 17.8114H8.31935C7.93093 17.8114 7.61621 18.1262 7.61621 18.5146C7.61621 18.903 7.93103 19.2177 8.31935 19.2177ZM8.31935 22.3504H31.1087C31.4971 22.3504 31.8118 22.0357 31.8118 21.6473C31.8118 21.2589 31.4971 20.9441 31.1087 20.9441H8.31935C7.93093 20.9441 7.61621 21.2589 7.61621 21.6473C7.61621 22.0357 7.93103 22.3504 8.31935 22.3504ZM8.31935 25.4832H31.1087C31.4971 25.4832 31.8118 25.1685 31.8118 24.7801C31.8118 24.3917 31.4971 24.0769 31.1087 24.0769H8.31935C7.93093 24.0769 7.61621 24.3917 7.61621 24.7801C7.61621 25.1685 7.93103 25.4832 8.31935 25.4832ZM8.31935 28.6159H31.1087C31.4971 28.6159 31.8118 28.3012 31.8118 27.9128C31.8118 27.5244 31.4971 27.2096 31.1087 27.2096H8.31935C7.93093 27.2096 7.61621 27.5244 7.61621 27.9128C7.61621 28.3012 7.93103 28.6159 8.31935 28.6159ZM8.31935 31.7486H31.1087C31.4971 31.7486 31.8118 31.4339 31.8118 31.0455C31.8118 30.6571 31.4971 30.3423 31.1087 30.3423H8.31935C7.93093 30.3423 7.61621 30.6571 7.61621 31.0455C7.61621 31.4339 7.93103 31.7486 8.31935 31.7486Z" fill="#171717"/>
<path d="M46.7221 18.1325L46.4508 17.9859L46.5073 17.8814C47.2193 16.5642 46.727 14.9131 45.4095 14.2008C44.092 13.489 42.4411 13.9816 41.7291 15.2987L40.7136 17.1774C40.6249 17.3414 40.605 17.534 40.6583 17.7127C40.7116 17.8914 40.8337 18.0416 40.9977 18.1303C41.0789 18.1742 41.168 18.2017 41.2599 18.2112C41.3517 18.2207 41.4445 18.212 41.533 18.1856C41.6215 18.1592 41.7039 18.1157 41.7756 18.0574C41.8472 17.9992 41.9067 17.9274 41.9506 17.8461L42.9661 15.9674C43.3095 15.3324 44.1057 15.0948 44.7408 15.438C45.376 15.7814 45.6136 16.5776 45.2702 17.2127L35.1157 35.9998C34.8725 36.452 34.4921 36.8154 34.0293 37.0377L32.7261 37.6668L32.5385 36.2318C32.4711 35.7229 32.5667 35.2057 32.8116 34.7545L40.6442 20.2633C40.7329 20.0993 40.7527 19.9067 40.6994 19.728C40.6462 19.5493 40.5241 19.3991 40.36 19.3104C40.2788 19.2665 40.1897 19.239 40.0979 19.2295C40.006 19.22 39.9132 19.2287 39.8247 19.2551C39.7362 19.2815 39.6538 19.325 39.5821 19.3833C39.5105 19.4415 39.451 19.5133 39.4071 19.5946L37.5212 23.0838V4.92035C37.5212 4.00468 36.7764 3.25983 35.8607 3.25983H32.9843V1.68396C32.9843 0.768291 32.2395 0.0234375 31.3238 0.0234375H1.66062C0.744948 0.0234375 0 0.768385 0 1.68396V24.844C0 25.2324 0.314723 25.5471 0.703135 25.5471C1.09155 25.5471 1.40627 25.2324 1.40627 24.844V1.68396C1.40637 1.61654 1.4332 1.55192 1.48088 1.50425C1.52856 1.45659 1.5932 1.42978 1.66062 1.42971H31.3238C31.3912 1.42981 31.4558 1.45663 31.5035 1.50429C31.5511 1.55195 31.578 1.61656 31.5781 1.68396V3.25983H5.21988C4.30422 3.25983 3.55936 4.00468 3.55936 4.92035V41.1965C3.56217 41.3976 3.63952 41.5679 3.76524 41.6937L5.60351 43.532H1.66062C1.5932 43.5319 1.52856 43.5051 1.48088 43.4575C1.4332 43.4098 1.40637 43.3452 1.40627 43.2777V27.5628C1.40627 27.1744 1.09155 26.8596 0.703135 26.8596C0.314723 26.8596 0 27.1744 0 27.5628V43.2777C0 44.1934 0.744948 44.9383 1.66062 44.9383H7.00988L9.84276 47.7712C9.97469 47.903 10.1535 47.977 10.34 47.977H27.454C27.8424 47.977 28.1572 47.6623 28.1572 47.2739C28.1572 46.8855 27.8424 46.5708 27.454 46.5708H11.0431V42.1287C11.0431 41.2269 10.3095 40.4933 9.40766 40.4933H4.96563V4.92035C4.96573 4.85295 4.99255 4.78833 5.04021 4.74067C5.08787 4.69301 5.15248 4.66619 5.21988 4.6661H35.8607C35.9281 4.66619 35.9927 4.69301 36.0404 4.74067C36.088 4.78833 36.1149 4.85295 36.115 4.92035V25.6856L31.5746 34.0859C31.1875 34.8022 31.0386 35.6072 31.1442 36.4141L31.4284 38.589L31.0359 39.3152C30.9908 39.3965 30.9623 39.4859 30.952 39.5783C30.9417 39.6707 30.9498 39.7643 30.9759 39.8535C31.002 39.9428 31.0455 40.0259 31.104 40.0982C31.1624 40.1706 31.2347 40.2305 31.3165 40.2748C31.3982 40.319 31.488 40.3465 31.5805 40.3558C31.673 40.3651 31.7665 40.356 31.8554 40.3289C31.9444 40.3018 32.0271 40.2574 32.0988 40.1982C32.1704 40.1389 32.2296 40.0661 32.2729 39.9838L32.6655 39.2576L34.6406 38.3041C35.2368 38.0162 35.7397 37.5885 36.1149 37.0536V46.3165C36.1148 46.3839 36.088 46.4486 36.0403 46.4962C35.9927 46.5439 35.928 46.5708 35.8606 46.5709H30.1726C29.7842 46.5709 29.4695 46.8856 29.4695 47.274C29.4695 47.6624 29.7842 47.9771 30.1726 47.9771H35.8606C36.7763 47.9771 37.5211 47.2322 37.5211 46.3165V34.5068L45.782 19.223L46.0533 19.3696C46.5533 19.6399 46.7402 20.2666 46.47 20.7666L42.7402 27.6671C42.6951 27.7484 42.6666 27.8379 42.6563 27.9303C42.646 28.0227 42.6541 28.1162 42.6802 28.2055C42.7063 28.2947 42.7498 28.3779 42.8083 28.4502C42.8667 28.5225 42.9389 28.5825 43.0207 28.6267C43.1025 28.6709 43.1923 28.6985 43.2848 28.7078C43.3773 28.7171 43.4708 28.7079 43.5597 28.6809C43.6487 28.6538 43.7314 28.6094 43.803 28.5501C43.8747 28.4909 43.9339 28.418 43.9772 28.3358L47.707 21.4351C48.3462 20.2531 47.9043 18.7714 46.7221 18.1325ZM9.40766 41.8996C9.46841 41.8997 9.52664 41.9238 9.5696 41.9668C9.61255 42.0098 9.63671 42.068 9.63679 42.1287V45.5763L5.95996 41.8996H9.40766Z" fill="#171717"/>
<path d="M17.1666 41.8726C17.3458 41.924 17.5381 41.9022 17.7012 41.8118C17.8643 41.7215 17.9848 41.57 18.0363 41.3908C18.5159 39.7221 19.4997 37.8474 20.0984 37.8362C20.4619 37.8299 20.5939 37.8868 20.7478 39.0569C20.8542 39.865 21.0149 41.0864 22.2422 41.2229C23.6505 41.3797 24.032 40.0576 24.2369 39.3475C24.2791 39.2013 24.3352 39.0071 24.3901 38.8645C24.4275 38.9578 24.4671 39.0747 24.4997 39.1712C24.9343 40.457 25.6677 41.7862 28.6981 41.786C29.1509 41.786 29.6555 41.7563 30.2177 41.6923C30.4029 41.6712 30.5722 41.5773 30.6883 41.4314C30.8044 41.2854 30.8578 41.0994 30.8368 40.9141C30.7929 40.5283 30.4443 40.2525 30.0586 40.295C28.4274 40.4809 27.2696 40.362 26.6184 39.9415C26.1402 39.633 25.9905 39.1899 25.832 38.7209C25.6555 38.1989 25.3574 37.3228 24.3287 37.3386C23.3495 37.351 23.0704 38.3176 22.8859 38.9575C22.6394 39.8112 22.5482 39.8419 22.3974 39.8252C22.3754 39.8228 22.3663 39.8195 22.3657 39.8195C22.254 39.7241 22.1811 39.1709 22.1419 38.8733C22.0281 38.0081 21.8177 36.4017 20.072 36.4301C19.1204 36.4479 18.2791 37.2467 17.5002 38.8722C16.9954 39.9256 16.6969 40.9597 16.6844 41.0032C16.6331 41.1824 16.655 41.3747 16.7455 41.5377C16.8359 41.7008 16.9873 41.8212 17.1666 41.8726Z" fill="#171717"/>
</g>
<defs>
<clipPath id="clip0_102_627">
<rect width="48" height="48" fill="white"/>
</clipPath>
</defs>
</svg>
