<svg width="40" height="40" viewBox="0 0 40 40" fill="none" xmlns="http://www.w3.org/2000/svg">
<path d="M33.3333 29.9993C33.7581 29.9998 34.1667 30.1625 34.4756 30.4541C34.7845 30.7457 34.9704 31.1443 34.9953 31.5683C35.0202 31.9924 34.8822 32.41 34.6096 32.7357C34.3369 33.0615 33.9502 33.2708 33.5283 33.321L33.3333 33.3327H6.66667C6.24187 33.3322 5.83328 33.1695 5.52439 32.8779C5.21549 32.5863 5.02961 32.1878 5.00471 31.7637C4.97982 31.3396 5.11779 30.9221 5.39044 30.5963C5.66309 30.2705 6.04984 30.0612 6.47167 30.011L6.66667 29.9993H33.3333ZM33.3333 18.3327C33.7754 18.3327 34.1993 18.5083 34.5118 18.8208C34.8244 19.1334 35 19.5573 35 19.9993C35 20.4414 34.8244 20.8653 34.5118 21.1779C34.1993 21.4904 33.7754 21.666 33.3333 21.666H6.66667C6.22464 21.666 5.80072 21.4904 5.48816 21.1779C5.17559 20.8653 5 20.4414 5 19.9993C5 19.5573 5.17559 19.1334 5.48816 18.8208C5.80072 18.5083 6.22464 18.3327 6.66667 18.3327H33.3333ZM33.3333 6.66602C33.7754 6.66602 34.1993 6.84161 34.5118 7.15417C34.8244 7.46673 35 7.89065 35 8.33268C35 8.77471 34.8244 9.19863 34.5118 9.51119C34.1993 9.82375 33.7754 9.99935 33.3333 9.99935H6.66667C6.22464 9.99935 5.80072 9.82375 5.48816 9.51119C5.17559 9.19863 5 8.77471 5 8.33268C5 7.89065 5.17559 7.46673 5.48816 7.15417C5.80072 6.84161 6.22464 6.66602 6.66667 6.66602H33.3333Z" fill="#171717"/>
</svg>
