<svg width="40" height="40" viewBox="0 0 40 40" fill="none" xmlns="http://www.w3.org/2000/svg">
<path d="M31.9752 11.8987C32.2367 11.8993 32.4957 11.8483 32.7375 11.7485C32.9792 11.6488 33.1989 11.5023 33.3838 11.3174L39.0264 5.68026C40.3258 4.38098 40.326 2.27418 39.0267 0.9747C37.7273 -0.324779 35.6206 -0.324911 34.3211 0.974369L28.6859 6.61887C28.3981 6.91085 28.2069 7.28425 28.1384 7.68848C28.0698 8.09272 28.1272 8.50826 28.3026 8.87883L26.508 10.6734L22.7327 6.89751C22.4046 6.57756 21.9991 6.34809 21.5559 6.23147C21.1127 6.11486 20.6468 6.11508 20.2037 6.2321C19.7605 6.34913 19.3553 6.57897 19.0274 6.89923C18.6996 7.21949 18.4603 7.61923 18.3329 8.05949C18.3329 8.06814 18.3282 8.07613 18.3262 8.08551C18.2596 8.34083 16.9929 13.0821 15.8549 17.334H12.6663V14.0007C12.6663 12.8962 11.7709 12.0008 10.6664 12.0008H1.99994C0.895422 12.0007 0 12.8961 0 14.0007V38.0001C0 39.1046 0.895422 40 1.99994 40H35.499C36.6035 40 37.4989 39.1046 37.4989 38.0001V35.3335C37.4989 34.229 36.6035 33.3335 35.499 33.3335H35.3325H32.6659V30.0003C32.6659 28.8958 31.7704 28.0004 30.6659 28.0004H25.9994V24.6671C25.9975 24.1936 25.826 23.7365 25.5161 23.3785L31.9373 21.6578C32.3794 21.5397 32.7825 21.307 33.1059 20.9832C34.1258 19.9552 34.1258 18.2973 33.1059 17.2693L29.3327 13.4967L31.1267 11.7021C31.3917 11.8288 31.6814 11.896 31.9752 11.8987ZM30.0919 10.8487L24.1381 16.8052C23.8791 17.0644 23.459 17.0646 23.1998 16.8055C22.9406 16.5465 22.9405 16.1264 23.1995 15.8673L29.154 9.91076L30.0919 10.8487ZM29.6292 7.56152L35.2658 1.91701C36.0521 1.19126 37.2711 1.21563 38.0278 1.97216C38.7846 2.72869 38.8092 3.94773 38.0836 4.73425L32.4405 10.3721C32.3793 10.4336 32.3066 10.4824 32.2265 10.5157C32.1464 10.549 32.0605 10.5662 31.9738 10.5662C31.8871 10.5662 31.8012 10.549 31.7211 10.5157C31.641 10.4824 31.5683 10.4336 31.5071 10.3721L29.6405 8.50548L29.6352 8.50013C29.376 8.2419 29.3733 7.82298 29.6292 7.56152ZM15.5009 18.6672C15.2376 19.6519 14.989 20.5779 14.7757 21.3752C14.6627 21.7962 14.6384 22.2362 14.7043 22.6671H6.66653V18.6672H15.5009ZM27.3326 34.6668V38.6667H13.9996V34.6668H27.3326ZM6.66653 33.3335V29.3337H19.9995V33.3335H6.66653ZM1.33329 33.3335V29.3337H5.33317V33.3335H1.33329ZM1.33329 28.0003V24.0004H12.6663V28.0003H1.33329ZM1.33329 22.6671V18.6672H5.33317V22.6671H1.33329ZM1.99994 13.334H10.6664C11.0346 13.334 11.3331 13.6325 11.3331 14.0007V17.3339H1.33329V14.0007C1.33329 13.6325 1.63174 13.334 1.99994 13.334ZM1.33329 38.0001V34.6668H12.6663V38.6667H1.99994C1.63174 38.6667 1.33329 38.3683 1.33329 38.0001ZM35.499 34.6668C35.8672 34.6668 36.1656 34.9653 36.1656 35.3335V38.0001C36.1656 38.3683 35.8672 38.6667 35.499 38.6667H28.666V34.6668H35.499ZM30.6659 29.3336C31.0341 29.3336 31.3326 29.632 31.3326 30.0002V33.3335H21.3328V29.3336H30.6659ZM23.9994 24.0004C24.3676 24.0004 24.666 24.2989 24.666 24.6671V28.0003H13.9996V24.0004H15.2489C15.3508 24.1464 15.4648 24.2835 15.5896 24.4104C15.8786 24.7028 16.2227 24.935 16.602 25.0935C16.9814 25.252 17.3884 25.3336 17.7995 25.3337C18.0787 25.3332 18.3566 25.2962 18.6262 25.2237L23.1941 24.0004L23.9994 24.0004ZM32.1612 18.2119C32.2825 18.3314 32.3788 18.4738 32.4445 18.6309C32.5102 18.788 32.5441 18.9566 32.5441 19.1268C32.5441 19.2971 32.5102 19.4657 32.4445 19.6228C32.3788 19.7798 32.2825 19.9223 32.1612 20.0418C32.0043 20.1992 31.8086 20.3124 31.5939 20.3698L18.2803 23.9337C17.9739 24.0147 17.6516 24.0139 17.3457 23.9313C17.0397 23.8488 16.7607 23.6874 16.5366 23.4634C16.3126 23.2393 16.1512 22.9603 16.0686 22.6543C15.9861 22.3484 15.9853 22.0261 16.0663 21.7197C18.9129 11.0933 19.4975 8.91139 19.6175 8.40608H19.6255C19.6918 8.19215 19.8115 7.99862 19.9733 7.84373C20.135 7.68883 20.3336 7.57767 20.5502 7.52072C20.7668 7.46377 20.9944 7.4629 21.2114 7.5182C21.4284 7.57349 21.6278 7.68313 21.7908 7.83679L25.568 11.614L22.2601 14.9233C21.4824 15.7037 21.4824 16.9661 22.2601 17.7465C23.0404 18.5237 24.3023 18.5237 25.0827 17.7465L28.3906 14.4373L32.1612 18.2119Z" fill="#FCCF3C"/>
</svg>
