<svg width="24" height="24" viewBox="0 0 24 24" fill="none" xmlns="http://www.w3.org/2000/svg">
<path d="M19.81 18.8926L12.9173 11.9999L19.81 5.10729C20.0633 4.85401 20.0633 4.4433 19.81 4.18998C19.5567 3.93667 19.146 3.93667 18.8926 4.18998L12 11.0826L5.10729 4.18998C4.85401 3.93667 4.4433 3.93667 4.18998 4.18998C3.93667 4.44326 3.93667 4.85398 4.18998 5.10729L11.0827 11.9999L4.18998 18.8926C3.93667 19.146 3.93667 19.5566 4.18998 19.81C4.44326 20.0632 4.85398 20.0633 5.10729 19.81L12 12.9172L18.8927 19.81C19.146 20.0632 19.5567 20.0633 19.81 19.81C20.0633 19.5566 20.0633 19.146 19.81 18.8926Z" fill="#171717"/>
</svg>
