<svg width="40" height="40" viewBox="0 0 40 40" fill="none" xmlns="http://www.w3.org/2000/svg">
<g clip-path="url(#clip0_1_470)">
<path d="M12.3181 7.26221C13.6206 7.26221 14.7754 8.0908 15.1913 9.32393C15.2148 9.39821 15.2528 9.46707 15.3032 9.52648C15.3536 9.58589 15.4153 9.63466 15.4848 9.66992C15.5542 9.70519 15.63 9.72626 15.7077 9.73189C15.7854 9.73751 15.8635 9.72759 15.9373 9.7027C16.0111 9.67781 16.0792 9.63845 16.1376 9.58692C16.1961 9.53539 16.2436 9.47273 16.2775 9.4026C16.3115 9.33248 16.3311 9.25629 16.3352 9.1785C16.3393 9.1007 16.3279 9.02287 16.3016 8.94955C15.7248 7.23939 14.1242 6.09033 12.3181 6.09033C10.0006 6.09033 8.11523 7.97604 8.11523 10.2935C8.11523 12.611 10.0006 14.4964 12.3181 14.4964C14.1241 14.4964 15.7248 13.3474 16.3016 11.6372C16.405 11.3308 16.2405 10.9981 15.9338 10.895C15.7866 10.8453 15.6257 10.8562 15.4864 10.9251C15.3472 10.9941 15.241 11.1155 15.1913 11.2628C14.7754 12.496 13.6206 13.3245 12.3181 13.3245C10.647 13.3245 9.28711 11.9649 9.28711 10.2935C9.28711 8.62205 10.647 7.26221 12.3181 7.26221Z" fill="#FCCF3C"/>
<path d="M21.5433 10.2938C21.5433 7.28782 20.0983 4.61298 17.8662 2.92782C17.849 2.91169 17.8311 2.89651 17.8123 2.88235C14.566 0.472351 10.0955 0.453757 6.82437 2.88235C6.80541 2.89635 6.78736 2.91154 6.77031 2.92782C4.53828 4.61329 3.09328 7.28782 3.09328 10.2938V11.7987H2.13828C1.47914 11.7987 0.943203 12.3348 0.943203 12.9938V16.5795C0.943203 17.2384 1.47914 17.7746 2.13828 17.7746H3.0932V32.9449C3.0932 33.1003 3.15494 33.2494 3.26482 33.3592C3.3747 33.4691 3.52374 33.5309 3.67914 33.5309C3.83454 33.5309 3.98358 33.4691 4.09346 33.3592C4.20335 33.2494 4.26508 33.1003 4.26508 32.9449V22.6605H5.57914V36.9082C5.57914 37.3782 5.19648 37.7606 4.7268 37.7606H4.26508V35.2887C4.26508 35.1333 4.20335 34.9842 4.09346 34.8744C3.98358 34.7645 3.83454 34.7027 3.67914 34.7027C3.52374 34.7027 3.3747 34.7645 3.26482 34.8744C3.15494 34.9842 3.0932 35.1333 3.0932 35.2887V37.7606H0.664062C0.508662 37.7606 0.359627 37.8223 0.249742 37.9322C0.139858 38.0421 0.078125 38.1911 0.078125 38.3465C0.078125 38.5019 0.139858 38.6509 0.249742 38.7608C0.359627 38.8707 0.508662 38.9324 0.664062 38.9324H4.92219C5 38.9324 5.07453 38.9172 5.14281 38.8895C6.06016 38.6971 6.75109 37.882 6.75109 36.9082V22.6605H7.14266C7.24983 22.6605 7.35496 22.6311 7.4466 22.5756C7.53823 22.52 7.61286 22.4403 7.66234 22.3452C8.57055 20.6017 10.3546 19.519 12.3181 19.519C17.4051 19.519 21.5433 15.3805 21.5433 10.2938ZM7.75938 3.65837C10.502 1.76813 14.1339 1.76782 16.8771 3.65837V4.66618C16.8771 4.94899 16.6821 5.07938 16.5982 5.12243C16.5146 5.16508 16.2958 5.24688 16.0675 5.08243C14.9707 4.29204 13.6743 3.87454 12.3184 3.87454C10.9626 3.87454 9.66586 4.29204 8.56906 5.08235C8.34109 5.24657 8.12195 5.16516 8.03859 5.12243C7.95469 5.07938 7.75969 4.94899 7.75969 4.66618V3.65837H7.75938ZM2.13836 16.6027C2.13221 16.6027 2.1263 16.6003 2.12195 16.5959C2.1176 16.5916 2.11516 16.5857 2.11516 16.5795V12.9937C2.11516 12.9809 2.12555 12.9706 2.13836 12.9706H3.09328V16.6027H2.13836ZM12.318 18.3471C10.0366 18.3471 7.95352 19.5419 6.79867 21.4885H4.26508V10.2939C4.26508 8.09329 5.15227 6.09626 6.5875 4.6411V4.6661C6.5875 5.30157 6.93906 5.87587 7.5043 6.16547C7.74186 6.28752 8.00503 6.35133 8.27211 6.35165C8.61789 6.35165 8.96117 6.24423 9.25414 6.03337C10.1502 5.38758 11.2097 5.04641 12.3181 5.04641C13.4268 5.04641 14.4864 5.38758 15.3824 6.03337C15.8969 6.40383 16.5671 6.45477 17.132 6.16547C17.6974 5.87587 18.049 5.30157 18.049 4.66618V4.64118C19.4842 6.09618 20.3714 8.09329 20.3714 10.2939C20.3714 14.7345 16.7587 18.3472 12.3181 18.3472L12.318 18.3471Z" fill="#FCCF3C"/>
<path d="M33.395 5.67477C33.395 5.6693 33.395 5.66383 33.3947 5.65859V3.06305C33.395 3.05758 33.395 3.05234 33.395 3.04688C33.395 3.04141 33.395 3.03617 33.3947 3.0307V0.585938C33.3947 0.430537 33.333 0.281502 33.2231 0.171617C33.1132 0.0617325 32.9642 0 32.8088 0L25.9002 0C25.5767 0 25.3142 0.2625 25.3142 0.585938V8.82109C25.3142 8.97649 25.376 9.12553 25.4858 9.23541C25.5957 9.3453 25.7448 9.40703 25.9002 9.40703C26.0556 9.40703 26.2046 9.3453 26.3145 9.23541C26.4244 9.12553 26.4861 8.97649 26.4861 8.82109V1.17188H32.2228V2.46094H30.924C30.7686 2.46094 30.6195 2.52267 30.5097 2.63255C30.3998 2.74244 30.338 2.89147 30.338 3.04688C30.338 3.20228 30.3998 3.35131 30.5097 3.4612C30.6195 3.57108 30.7686 3.63281 30.924 3.63281H32.2228V5.08883H30.924C30.847 5.0888 30.7708 5.10393 30.6997 5.13337C30.6286 5.1628 30.564 5.20596 30.5096 5.26038C30.4552 5.31479 30.412 5.3794 30.3826 5.4505C30.3532 5.5216 30.338 5.59781 30.338 5.67477C30.338 5.83017 30.3998 5.9792 30.5097 6.08909C30.6195 6.19897 30.7686 6.2607 30.924 6.2607H32.2228V7.71664H29.3545C29.031 7.71664 28.7686 7.97914 28.7686 8.30258C28.7686 8.62609 29.031 8.88852 29.3545 8.88852H32.2228V10.3445H30.924C30.847 10.3445 30.7708 10.3596 30.6997 10.3891C30.6286 10.4185 30.564 10.4617 30.5096 10.5161C30.4552 10.5705 30.412 10.6351 30.3826 10.7062C30.3532 10.7773 30.338 10.8535 30.338 10.9305C30.338 11.0859 30.3998 11.2349 30.5097 11.3448C30.6195 11.4547 30.7686 11.5164 30.924 11.5164H32.2228V12.9724H30.924C30.847 12.9724 30.7708 12.9875 30.6997 13.017C30.6286 13.0464 30.564 13.0896 30.5096 13.144C30.4552 13.1984 30.412 13.263 30.3826 13.3341C30.3532 13.4052 30.338 13.4814 30.338 13.5584C30.338 13.7138 30.3998 13.8628 30.5097 13.9727C30.6195 14.0826 30.7686 14.1443 30.924 14.1443H32.2228V15.6H29.3545C29.1991 15.6 29.0501 15.6617 28.9402 15.7716C28.8303 15.8815 28.7686 16.0305 28.7686 16.1859C28.7686 16.3413 28.8303 16.4904 28.9402 16.6003C29.0501 16.7101 29.1991 16.7719 29.3545 16.7719H32.2228V18.2278H30.924C30.7686 18.2278 30.6195 18.2895 30.5097 18.3994C30.3998 18.5093 30.338 18.6583 30.338 18.8137C30.338 19.1376 30.6002 19.3997 30.924 19.3997H32.2228V20.8557H30.924C30.7686 20.8557 30.6195 20.9174 30.5097 21.0273C30.3998 21.1372 30.338 21.2862 30.338 21.4416C30.338 21.7655 30.6002 22.0276 30.924 22.0276H32.2228V23.4836H29.3545C29.031 23.4836 28.7686 23.7461 28.7686 24.0695C28.7686 24.393 29.031 24.6555 29.3545 24.6555H32.2228V26.1115H30.924C30.7686 26.1115 30.6195 26.1732 30.5097 26.2831C30.3998 26.393 30.338 26.542 30.338 26.6974C30.338 26.8528 30.3998 27.0019 30.5097 27.1117C30.6195 27.2216 30.7686 27.2834 30.924 27.2834H32.2228V28.7393H30.924C30.7686 28.7393 30.6195 28.801 30.5097 28.9109C30.3998 29.0208 30.338 29.1698 30.338 29.3252C30.338 29.4806 30.3998 29.6297 30.5097 29.7396C30.6195 29.8494 30.7686 29.9112 30.924 29.9112H32.2228V35.2057L30.7482 32.2266C30.4134 31.5509 29.7372 31.131 28.9831 31.131H26.4862V11.1648C26.4862 11.0094 26.4244 10.8604 26.3146 10.7505C26.2047 10.6406 26.0556 10.5789 25.9002 10.5789C25.7448 10.5789 25.5958 10.6406 25.4859 10.7505C25.376 10.8604 25.3143 11.0094 25.3143 11.1648V31.131H14.5907C13.6932 31.131 12.9629 31.8613 12.9629 32.7588V38.3722C12.9629 39.2697 13.6932 40 14.5907 40H31.4239C32.1096 40 32.7352 39.6521 33.0972 39.0692C33.2339 38.8495 33.3261 38.6051 33.3688 38.3499C33.3855 38.295 33.3947 38.2366 33.3947 38.1763V38.0512C33.395 38.038 33.395 38.0249 33.3947 38.0118V29.3414C33.395 29.3359 33.395 29.3307 33.395 29.3252C33.395 29.32 33.395 29.3145 33.3947 29.309V26.7135C33.395 26.708 33.395 26.7028 33.395 26.6973C33.395 26.6921 33.395 26.6866 33.3947 26.6814V24.0859C33.395 24.0805 33.395 24.075 33.395 24.0698C33.395 24.0643 33.395 24.0588 33.3947 24.0536V21.458C33.395 21.4526 33.395 21.4473 33.395 21.4419C33.395 21.4367 33.395 21.4312 33.3947 21.426V18.8302C33.395 18.825 33.395 18.8195 33.395 18.8143C33.395 18.8088 33.395 18.8034 33.3947 18.7981V16.2027C33.395 16.1972 33.395 16.192 33.395 16.1864C33.395 16.1809 33.395 16.1758 33.3947 16.1702V13.5748C33.395 13.5693 33.395 13.5641 33.395 13.5586C33.395 13.5534 33.395 13.5479 33.3947 13.5427V10.9469C33.395 10.9417 33.395 10.9362 33.395 10.931C33.395 10.9255 33.395 10.9201 33.3947 10.9148V8.3193C33.395 8.31383 33.395 8.30867 33.395 8.30313C33.395 8.29797 33.395 8.2925 33.3947 8.28695V5.69086C33.395 5.68539 33.395 5.68 33.395 5.67477ZM31.4239 38.8281H14.5907C14.4698 38.828 14.3539 38.7799 14.2684 38.6944C14.183 38.609 14.1349 38.4931 14.1348 38.3722V32.7588C14.1349 32.638 14.183 32.5221 14.2685 32.4366C14.354 32.3511 14.4698 32.3031 14.5907 32.3029H25.8852C25.8902 32.3031 25.8954 32.3031 25.9002 32.3031C25.9054 32.3031 25.9103 32.3031 25.9155 32.3029H28.9831C29.2886 32.3029 29.5623 32.4728 29.6978 32.7466L32.1386 37.6767C32.1893 37.7781 32.218 37.8891 32.2228 38.0023V38.0621C32.2226 38.0691 32.2223 38.0762 32.2216 38.0832C32.2186 38.1034 32.2164 38.1238 32.2152 38.1442C32.1988 38.2533 32.16 38.3578 32.1014 38.4512C31.9527 38.6908 31.7059 38.8281 31.4239 38.8281Z" fill="#FCCF3C"/>
</g>
<defs>
<clipPath id="clip0_1_470">
<rect width="40" height="40" fill="white"/>
</clipPath>
</defs>
</svg>
