<svg width="48" height="48" viewBox="0 0 48 48" fill="none" xmlns="http://www.w3.org/2000/svg">
<path d="M12.3247 16.7749C12.2395 16.7764 12.1548 16.7611 12.0756 16.7299C11.9963 16.6987 11.9239 16.6521 11.8627 16.593C11.7389 16.4734 11.6677 16.3096 11.6647 16.1376C11.6616 15.9656 11.7271 15.7994 11.8466 15.6756C11.9661 15.5519 12.1299 15.4806 12.3019 15.4776C15.4847 15.4421 18.6606 15.1732 21.804 14.6733C21.8598 14.6616 21.917 14.6577 21.9739 14.6616C22.7619 14.7033 23.5263 14.9443 24.1956 15.3622C24.3061 15.4425 24.3884 15.5556 24.4309 15.6854C24.4733 15.8153 24.4737 15.9552 24.4319 16.0853C24.3901 16.2153 24.3083 16.3289 24.1982 16.4098C24.0881 16.4906 23.9553 16.5346 23.8187 16.5356C23.6659 16.5355 23.5178 16.4831 23.399 16.387C22.9618 16.1364 22.472 15.9914 21.9688 15.9635C18.7832 16.4639 15.5659 16.7351 12.3415 16.7749H12.3247Z" fill="#FCCF3C"/>
<path d="M36.0522 32.2058C35.4987 32.2065 34.9594 32.0316 34.5116 31.7064L34.3722 31.6097C34.3447 31.5902 34.3189 31.5685 34.295 31.5448L26.6597 26.0462C26.5884 25.9976 26.5276 25.9352 26.4807 25.8627C26.4338 25.7903 26.4019 25.7092 26.3868 25.6242C26.3717 25.5392 26.3736 25.4521 26.3926 25.3679C26.4116 25.2837 26.4472 25.2041 26.4973 25.1339C26.5474 25.0636 26.611 25.004 26.6844 24.9587C26.7579 24.9133 26.8396 24.8831 26.9249 24.8697C27.0101 24.8563 27.0972 24.8601 27.181 24.8808C27.2648 24.9015 27.3436 24.9387 27.4128 24.9902L27.9317 25.36L35.0766 30.5122C35.098 30.5275 35.1183 30.5442 35.1376 30.5621L35.2615 30.6484C35.5428 30.8501 35.8908 30.9361 36.2337 30.8886C36.5766 30.8412 36.8882 30.664 37.1043 30.3935C37.2368 30.2262 37.3271 30.0295 37.3677 29.82C37.4082 29.6104 37.3977 29.3942 37.3371 29.1896C37.2643 28.9318 37.1136 28.7028 36.9058 28.5338L26.6935 20.2136C22.7828 22.2893 20.0124 21.2216 18.6898 20.3764C18.4712 20.2341 18.2937 20.0371 18.1751 19.8048C18.0564 19.5726 18.0007 19.3133 18.0135 19.0528C18.0263 18.7924 18.1072 18.5398 18.248 18.3203C18.3889 18.1008 18.5848 17.9221 18.8163 17.8019L24.6619 14.6975C25.035 14.5023 25.4431 14.3829 25.8625 14.3462C26.282 14.3094 26.7046 14.3561 27.106 14.4834L30.5639 15.6056C31.582 15.9404 32.6861 15.9006 33.6775 15.4934L35.1836 14.8765C35.2625 14.8442 35.3469 14.8277 35.4321 14.828C35.5173 14.8283 35.6016 14.8454 35.6802 14.8783C35.7588 14.9112 35.8302 14.9592 35.8902 15.0197C35.9502 15.0801 35.9978 15.1518 36.0301 15.2307C36.0624 15.3095 36.0789 15.3939 36.0786 15.4792C36.0783 15.5644 36.0612 15.6487 36.0283 15.7273C35.9954 15.8059 35.9474 15.8772 35.8869 15.9373C35.8265 15.9973 35.7548 16.0448 35.6759 16.0772L34.1711 16.6934C32.8946 17.2188 31.4723 17.2704 30.1611 16.8387L26.7064 15.7172C26.4698 15.6428 26.2208 15.616 25.9738 15.6383C25.7268 15.6606 25.4866 15.7314 25.2671 15.8469L19.4202 18.952C19.3876 18.9673 19.3599 18.9914 19.3402 19.0215C19.3206 19.0516 19.3096 19.0866 19.3086 19.1226C19.3059 19.1551 19.3122 19.1878 19.3269 19.2169C19.3415 19.2461 19.3639 19.2707 19.3916 19.288C20.7538 20.1585 23.0922 20.7967 26.4398 18.8735C26.5537 18.8081 26.6847 18.7788 26.8156 18.7894C26.9465 18.8001 27.071 18.8502 27.1728 18.9332L37.7198 27.5278C38.1334 27.8614 38.4342 28.3144 38.5812 28.8251C38.6977 29.227 38.7173 29.6508 38.6384 30.0618C38.5595 30.4728 38.3843 30.8592 38.1272 31.1894C37.8823 31.5064 37.5678 31.7629 37.208 31.9392C36.8482 32.1154 36.4528 32.2066 36.0522 32.2058Z" fill="#FCCF3C"/>
<path d="M33.3678 35.2129C32.8182 35.2135 32.282 35.0428 31.8338 34.7245L24.8219 29.7494C24.6849 29.6486 24.5929 29.498 24.5659 29.3301C24.5388 29.1621 24.5788 28.9903 24.6772 28.8516C24.7756 28.7128 24.9246 28.6183 25.092 28.5884C25.2595 28.5584 25.432 28.5954 25.5724 28.6914L32.5843 33.6659C32.8785 33.8581 33.2355 33.9291 33.5809 33.8642C33.9262 33.7992 34.2331 33.6034 34.4374 33.3175C34.6417 33.0316 34.7276 32.6779 34.6773 32.3301C34.6269 31.9824 34.444 31.6675 34.167 31.4514L27.1784 26.4147C27.0496 26.3105 26.9656 26.1609 26.9435 25.9967C26.9215 25.8325 26.9631 25.6661 27.0598 25.5316C27.1566 25.3971 27.3011 25.3047 27.4638 25.2734C27.6265 25.2421 27.795 25.2742 27.9348 25.3632L34.9253 30.4006C35.3803 30.7301 35.7193 31.1951 35.8937 31.7291C36.0681 32.2631 36.0689 32.8386 35.8961 33.3731C35.7232 33.9076 35.3855 34.3737 34.9315 34.7044C34.4774 35.0352 33.9303 35.2136 33.3685 35.2142L33.3678 35.2129Z" fill="#FCCF3C"/>
<path d="M30.3405 37.8113C29.8184 37.8111 29.3088 37.6511 28.8804 37.3527L22.5969 33.0003C22.4554 32.9023 22.3586 32.7521 22.3278 32.5828C22.2971 32.4135 22.3348 32.2388 22.4328 32.0973C22.5308 31.9558 22.6809 31.8591 22.8503 31.8283C23.0196 31.7975 23.1942 31.8353 23.3357 31.9332L29.6192 36.2857C29.7572 36.3811 29.9126 36.4484 30.0766 36.4838C30.2406 36.5191 30.41 36.5218 30.575 36.4917C30.7401 36.4616 30.8976 36.3993 31.0385 36.3083C31.1795 36.2172 31.3011 36.0994 31.3965 35.9613C31.5863 35.6846 31.66 35.3445 31.6018 35.014C31.5436 34.6835 31.3581 34.389 31.0851 34.1938L24.8321 29.7583C24.7611 29.7097 24.7003 29.6474 24.6536 29.5751C24.6068 29.5028 24.5749 29.4219 24.5598 29.3371C24.5446 29.2523 24.5465 29.1654 24.5652 29.0813C24.584 28.9973 24.6194 28.9178 24.6692 28.8476C24.719 28.7773 24.7824 28.7177 24.8555 28.6722C24.9286 28.6267 25.01 28.5962 25.0951 28.5825C25.1801 28.5688 25.267 28.5721 25.3507 28.5924C25.4344 28.6126 25.5133 28.6493 25.5826 28.7004L31.8356 33.1358C32.386 33.5292 32.7602 34.1227 32.8777 34.7889C32.9952 35.4552 32.8467 36.1409 32.4641 36.6989C32.273 36.9777 32.0284 37.2159 31.7446 37.3996C31.4608 37.5833 31.1434 37.7089 30.8107 37.7691C30.6556 37.7974 30.4982 37.8116 30.3405 37.8113Z" fill="#FCCF3C"/>
<path d="M26.6345 39.9435C26.1807 39.9413 25.7354 39.82 25.3431 39.5919L21.8553 37.5811C21.7075 37.4945 21.6 37.3529 21.5562 37.1873C21.5124 37.0217 21.5359 36.8455 21.6216 36.6972C21.7072 36.5489 21.8481 36.4404 22.0134 36.3955C22.1787 36.3507 22.355 36.373 22.5039 36.4576L25.9911 38.4685C26.2859 38.6349 26.634 38.6794 26.9612 38.5926C27.2885 38.5059 27.5688 38.2946 27.7424 38.004C27.9073 37.7254 27.9598 37.3944 27.889 37.0785C27.8183 36.7626 27.6296 36.4855 27.3616 36.3039L22.9054 33.217C22.8354 33.1685 22.7756 33.1067 22.7295 33.035C22.6834 32.9634 22.6518 32.8834 22.6366 32.7996C22.6214 32.7158 22.6228 32.6298 22.6409 32.5466C22.6589 32.4633 22.6931 32.3844 22.7416 32.3144C22.7902 32.2444 22.852 32.1846 22.9236 32.1385C22.9952 32.0924 23.0752 32.0608 23.159 32.0456C23.2428 32.0304 23.3288 32.0318 23.4121 32.0498C23.4953 32.0679 23.5742 32.1021 23.6442 32.1506L28.0998 35.2369C28.5521 35.55 28.8926 35.9994 29.0718 36.5195C29.2509 37.0397 29.2593 37.6034 29.0957 38.1287C28.9321 38.6539 28.6051 39.1132 28.1623 39.4396C27.7195 39.7661 27.1846 39.9426 26.6345 39.9435Z" fill="#FCCF3C"/>
<path d="M19.2898 39.5569C18.7591 39.5577 18.2408 39.3966 17.8042 39.095C17.3675 38.7935 17.0332 38.3659 16.8459 37.8694C16.6587 37.3729 16.6274 36.831 16.7562 36.3162C16.8851 35.8015 17.1679 35.3382 17.567 34.9884L19.2995 33.4706C19.557 33.2446 19.8564 33.0715 20.1808 32.9612C20.5051 32.8509 20.848 32.8055 21.1899 32.8278C21.5318 32.85 21.866 32.9393 22.1733 33.0907C22.4807 33.2421 22.7552 33.4525 22.9812 33.71C23.2072 33.9675 23.3803 34.2669 23.4905 34.5913C23.6008 34.9157 23.646 35.2586 23.6237 35.6005C23.6015 35.9424 23.5121 36.2765 23.3606 36.5839C23.2092 36.8912 22.9987 37.1657 22.7412 37.3917L21.0087 38.9128C20.5332 39.3294 19.922 39.5584 19.2898 39.5569ZM21.0197 34.1192C20.7016 34.1184 20.3941 34.2337 20.1551 34.4436L18.4219 35.9634C18.2924 36.0769 18.1866 36.2149 18.1104 36.3694C18.0343 36.5239 17.9893 36.6919 17.978 36.8638C17.9668 37.0356 17.9895 37.208 18.0449 37.3711C18.1003 37.5342 18.1873 37.6848 18.3009 37.8143C18.4145 37.9438 18.5525 38.0496 18.707 38.1257C18.8615 38.2019 19.0294 38.2469 19.2013 38.2581C19.3732 38.2693 19.5456 38.2466 19.7087 38.1912C19.8718 38.1358 20.0223 38.0488 20.1518 37.9352L21.8844 36.4142C22.0842 36.2382 22.2258 36.0056 22.2902 35.7473C22.3546 35.489 22.3388 35.2171 22.2449 34.968C22.1511 34.7188 21.9835 34.5042 21.7647 34.3525C21.5458 34.2009 21.286 34.1196 21.0197 34.1192Z" fill="#FCCF3C"/>
<path d="M15.3626 37.7893C15.3049 37.7893 15.2472 37.7893 15.1894 37.7842C14.8474 37.7627 14.5129 37.6738 14.2054 37.5223C13.8979 37.3709 13.6234 37.1601 13.3979 36.902C13.1688 36.6445 12.9928 36.3442 12.88 36.0185C12.7672 35.6928 12.7198 35.348 12.7406 35.0039C12.7614 34.6599 12.8499 34.3233 13.0011 34.0135C13.1523 33.7038 13.3632 33.4269 13.6217 33.1989L16.5159 30.6581C16.7734 30.4321 17.0729 30.259 17.3972 30.1487C17.7216 30.0384 18.0645 29.993 18.4064 30.0153C18.7482 30.0375 19.0824 30.1268 19.3898 30.2782C19.6971 30.4296 19.9716 30.64 20.1977 30.8975L19.7287 31.347L20.2158 30.9189C20.4419 31.1763 20.6151 31.4757 20.7255 31.8001C20.8358 32.1245 20.8812 32.4674 20.8589 32.8093C20.8367 33.1512 20.7473 33.4854 20.5959 33.7927C20.4445 34.1001 20.234 34.3746 19.9765 34.6006L17.0796 37.1413C16.6056 37.5598 15.9949 37.7903 15.3626 37.7893ZM18.2329 31.3067C17.9152 31.3059 17.6081 31.4212 17.3696 31.6311L14.4753 34.1718C14.2815 34.3468 14.1435 34.5749 14.0783 34.8277C14.0132 35.0805 14.0238 35.3469 14.1089 35.5937C14.194 35.8405 14.3498 36.0568 14.557 36.2157C14.7641 36.3747 15.0133 36.4692 15.2738 36.4875C15.4458 36.4993 15.6184 36.4767 15.7816 36.421C15.9447 36.3653 16.0951 36.2777 16.224 36.1632L19.1183 33.6224C19.2478 33.5088 19.3537 33.3708 19.4298 33.2163C19.506 33.0617 19.5509 32.8937 19.5621 32.7218C19.5733 32.5499 19.5506 32.3774 19.4951 32.2143C19.4397 32.0512 19.3526 31.9006 19.239 31.7712L19.2201 31.7498C19.1069 31.6208 18.9693 31.5155 18.8153 31.4399C18.6612 31.3643 18.4937 31.3199 18.3224 31.3093C18.2924 31.3081 18.2623 31.3074 18.2323 31.3074L18.2329 31.3067Z" fill="#FCCF3C"/>
<path d="M12.0898 35.4083C12.0327 35.4083 11.975 35.4083 11.9166 35.4031C11.5745 35.3817 11.2401 35.2927 10.9326 35.1413C10.6251 34.9899 10.3506 34.7791 10.1251 34.521L10.0544 34.4367C9.59843 33.9166 9.36766 33.2368 9.41279 32.5466C9.45792 31.8565 9.77524 31.2125 10.295 30.7562L13.6505 27.8107C13.9079 27.5846 14.2073 27.4114 14.5317 27.3011C14.8561 27.1907 15.199 27.1454 15.5409 27.1676C15.8828 27.1898 16.217 27.2792 16.5244 27.4306C16.8317 27.582 17.1062 27.7925 17.3322 28.0501L17.4055 28.1337C17.8616 28.6537 18.0925 29.3336 18.0473 30.0238C18.0022 30.714 17.6848 31.358 17.1648 31.8142L13.8094 34.7597C13.3348 35.1789 12.723 35.4096 12.0898 35.4083ZM15.3674 28.46C15.0497 28.4592 14.7427 28.5745 14.5041 28.7843L11.1486 31.7298C10.8869 31.9594 10.7271 32.2836 10.7044 32.631C10.6816 32.9784 10.7978 33.3206 11.0273 33.5824L11.1006 33.6661C11.3303 33.9271 11.6543 34.0862 12.0012 34.1086C12.3482 34.131 12.6899 34.0148 12.9512 33.7854L16.3067 30.8399C16.4362 30.7263 16.542 30.5883 16.6182 30.4337C16.6943 30.2792 16.7393 30.1112 16.7505 29.9393C16.7617 29.7674 16.7389 29.5949 16.6835 29.4318C16.628 29.2687 16.541 29.1181 16.4273 28.9887L16.3553 28.9063C16.2421 28.7767 16.1042 28.6709 15.9498 28.595C15.7954 28.5191 15.6274 28.4745 15.4557 28.4639C15.4263 28.4613 15.3969 28.46 15.3674 28.46Z" fill="#FCCF3C"/>
<path d="M9.26999 32.5213C9.21291 32.5213 9.15453 32.5213 9.0968 32.5155C8.57866 32.4828 8.08182 32.2973 7.66909 31.9824C7.25635 31.6674 6.94625 31.2372 6.77798 30.746C6.6097 30.2549 6.59081 29.7249 6.72368 29.223C6.85655 28.7211 7.13522 28.2698 7.52448 27.9263L9.62545 26.0822C9.88288 25.8561 10.1823 25.6829 10.5067 25.5726C10.8311 25.4622 11.174 25.4169 11.5159 25.4391C11.8578 25.4613 12.192 25.5507 12.4993 25.7021C12.8067 25.8535 13.0812 26.064 13.3072 26.3215L13.3299 26.3475C13.556 26.6049 13.7292 26.9044 13.8395 27.2287C13.9499 27.5531 13.9952 27.896 13.973 28.2379C13.9508 28.5799 13.8614 28.914 13.71 29.2214C13.5586 29.5287 13.3481 29.8032 13.0905 30.0292L10.9896 31.8733C10.5149 32.2923 9.90314 32.5229 9.26999 32.5213ZM11.3457 26.7308C11.028 26.73 10.7209 26.8454 10.4823 27.0552L8.38134 28.8993C8.25184 29.0129 8.14599 29.1509 8.06984 29.3054C7.99368 29.46 7.94872 29.628 7.93752 29.7999C7.92631 29.9718 7.94909 30.1443 8.00454 30.3074C8.05999 30.4705 8.14703 30.6211 8.2607 30.7505C8.37346 30.8841 8.5116 30.9939 8.66713 31.0737C8.82266 31.1534 8.99247 31.2015 9.16672 31.2151C9.34097 31.2288 9.5162 31.2077 9.68224 31.1531C9.84828 31.0985 10.0018 31.0115 10.134 30.8971L12.235 29.053C12.3645 28.9394 12.4703 28.8014 12.5465 28.6468C12.6226 28.4923 12.6676 28.3243 12.6788 28.1524C12.69 27.9805 12.6672 27.808 12.6118 27.6449C12.5563 27.4818 12.4693 27.3312 12.3556 27.2018L12.3329 27.1758C12.2196 27.0461 12.0817 26.9401 11.9271 26.8641C11.7726 26.788 11.6045 26.7434 11.4326 26.7328L11.3424 26.7308H11.3457Z" fill="#FCCF3C"/>
<path d="M8.09353 28.938C7.95313 28.9383 7.81648 28.8928 7.70434 28.8083L5.48791 27.1218C5.4201 27.0703 5.36312 27.0058 5.32021 26.9322C5.27731 26.8586 5.24932 26.7773 5.23784 26.6929C5.22637 26.6085 5.23164 26.5226 5.25334 26.4402C5.27504 26.3579 5.31276 26.2806 5.36434 26.2128C5.4685 26.0758 5.6228 25.9859 5.79329 25.9627C5.8777 25.9512 5.96355 25.9565 6.04593 25.9782C6.12831 25.9999 6.20561 26.0376 6.27342 26.0892L8.48985 27.7757C8.59903 27.8576 8.67961 27.9718 8.72011 28.1021C8.76061 28.2324 8.75897 28.3722 8.71542 28.5016C8.67188 28.6309 8.58865 28.7432 8.47757 28.8225C8.3665 28.9018 8.23324 28.9441 8.09677 28.9432L8.09353 28.938ZM37.9586 29.6568C37.8303 29.6567 37.705 29.6187 37.5983 29.5474C37.4917 29.4761 37.4086 29.3748 37.3595 29.2563C37.3104 29.1378 37.2975 29.0074 37.3226 28.8816C37.3476 28.7558 37.4093 28.6402 37.5 28.5495L41.1396 24.9086C41.2619 24.7905 41.4258 24.7251 41.5958 24.7266C41.7659 24.7281 41.9286 24.7963 42.0489 24.9165C42.1691 25.0368 42.2374 25.1995 42.2388 25.3696C42.2403 25.5396 42.1749 25.7035 42.0568 25.8258L38.4172 29.4654C38.3571 29.5259 38.2856 29.5739 38.207 29.6067C38.1283 29.6396 38.0439 29.6566 37.9586 29.6568Z" fill="#FCCF3C"/>
<path d="M42.9212 28.311C42.8103 28.3111 42.7011 28.2828 42.6043 28.2287C42.5074 28.1747 42.426 28.0967 42.3679 28.0022L34.4479 15.12C34.3642 14.9838 34.3338 14.8214 34.3626 14.6641C34.3913 14.5068 34.4771 14.3656 34.6036 14.2677L42.4477 8.19246C42.5338 8.12577 42.6353 8.08184 42.7428 8.06471C42.8504 8.04758 42.9605 8.05781 43.0631 8.09446C43.1657 8.1311 43.2573 8.19297 43.3297 8.27438C43.402 8.35578 43.4527 8.45409 43.4771 8.56025L47.3346 25.3907C47.3666 25.5277 47.3532 25.6713 47.2965 25.8C47.2397 25.9287 47.1427 26.0355 47.02 26.1042L43.2377 28.2299C43.1409 28.2836 43.0319 28.3116 42.9212 28.311ZM35.8581 14.9358L43.1463 26.7899L45.9621 25.2072L42.4399 9.83938L35.8581 14.9358ZM5.07903 28.5412C4.96793 28.5412 4.85871 28.5126 4.76184 28.4582L0.979565 26.3358C0.85686 26.2671 0.759823 26.1603 0.703079 26.0316C0.646336 25.9029 0.632961 25.7593 0.664971 25.6223L4.52313 8.79376C4.54749 8.68761 4.59818 8.5893 4.67053 8.50789C4.74288 8.42649 4.83456 8.36461 4.93712 8.32797C5.03968 8.29133 5.14982 8.2811 5.25737 8.29823C5.36492 8.31535 5.46643 8.35929 5.55254 8.42598L13.3973 14.5006C13.5237 14.5985 13.6096 14.7396 13.6383 14.8969C13.667 15.0542 13.6366 15.2166 13.553 15.3529L5.63232 28.2351C5.57388 28.3291 5.49236 28.4065 5.39551 28.4601C5.29866 28.5137 5.18971 28.5416 5.07903 28.5412ZM2.03816 25.442L4.85394 27.024L12.1422 15.1693L5.56032 10.0729L2.03816 25.442Z" fill="#FCCF3C"/>
</svg>
