<svg width="48" height="48" viewBox="0 0 48 48" fill="none" xmlns="http://www.w3.org/2000/svg">
<path d="M2.7333 3.4667H5.66661V13C5.66661 15.0217 7.31163 16.6667 9.3333 16.6667H30.6V17.4C30.6 17.4963 30.6189 17.5917 30.6558 17.6807C30.6926 17.7696 30.7466 17.8505 30.8147 17.9186C30.8828 17.9867 30.9637 18.0407 31.0526 18.0776C31.1416 18.1144 31.237 18.1333 31.3333 18.1333H32.0666V24.7333C32.0666 25.9465 33.0534 26.9333 34.2666 26.9333H35.7333V29.8666C35.7333 29.9629 35.7522 30.0583 35.7891 30.1473C35.8259 30.2363 35.8799 30.3171 35.948 30.3852C36.0161 30.4533 36.097 30.5073 36.1859 30.5442C36.2749 30.581 36.3703 30.5999 36.4666 30.5999C36.5629 30.5999 36.6583 30.581 36.7473 30.5442C36.8363 30.5073 36.9171 30.4533 36.9852 30.3852C37.0533 30.3171 37.1073 30.2363 37.1442 30.1473C37.181 30.0583 37.1999 29.9629 37.1999 29.8666V26.9333H38.6666C39.8798 26.9333 40.8666 25.9465 40.8666 24.7333V18.1333H41.5999C41.6962 18.1333 41.7916 18.1144 41.8806 18.0776C41.9696 18.0407 42.0504 17.9867 42.1185 17.9186C42.1866 17.8505 42.2406 17.7696 42.2775 17.6807C42.3143 17.5917 42.3333 17.4963 42.3332 17.4V8.6C42.3333 8.50369 42.3143 8.40832 42.2775 8.31934C42.2406 8.23035 42.1866 8.1495 42.1185 8.0814C42.0504 8.0133 41.9696 7.95929 41.8806 7.92245C41.7916 7.88561 41.6962 7.86666 41.5999 7.8667H39.3999V4.9333C39.3999 4.837 39.381 4.74163 39.3442 4.65264C39.3073 4.56366 39.2533 4.4828 39.1852 4.4147C39.1171 4.3466 39.0363 4.29259 38.9473 4.25575C38.8583 4.21891 38.7629 4.19997 38.6666 4.2H34.2666C34.1703 4.19997 34.0749 4.21891 33.9859 4.25575C33.897 4.29259 33.8161 4.3466 33.748 4.4147C33.6799 4.4828 33.6259 4.56366 33.5891 4.65264C33.5522 4.74163 33.5333 4.837 33.5333 4.9333V7.86661H31.3333C31.237 7.86658 31.1416 7.88552 31.0526 7.92236C30.9637 7.9592 30.8828 8.01321 30.8147 8.08131C30.7466 8.14941 30.6926 8.23027 30.6558 8.31925C30.6189 8.40823 30.6 8.50361 30.6 8.59991V9.33322H13V3.4667H15.9333C16.3387 3.4667 16.6666 3.13833 16.6666 2.73339C16.6666 2.32845 16.3387 2 15.9333 2H2.7333C2.32802 2 2 2.32837 2 2.7333C2 3.13824 2.32802 3.4667 2.7333 3.4667ZM39.4 24.7333C39.4 25.1376 39.0713 25.4666 38.6667 25.4666H34.2667C33.8621 25.4666 33.5334 25.1376 33.5334 24.7333V23.2666H39.4V24.7333ZM39.4 21.8H33.5333V18.1333H39.4V21.8ZM35 5.6667H37.9333V7.8667H35V5.6667ZM32.0667 15.9333V9.33339H40.8667V16.6667H32.0667V15.9333ZM7.1333 3.4667H11.5333V10.0667C11.5333 10.163 11.5522 10.2584 11.5891 10.3474C11.6259 10.4363 11.6799 10.5172 11.748 10.5853C11.8161 10.6534 11.897 10.7074 11.9859 10.7442C12.0749 10.7811 12.1703 10.8 12.2666 10.8H30.6V15.2H9.3333C8.12012 15.2 7.1333 14.2132 7.1333 13V3.4667ZM40.1333 34.2667H7.8667C4.63184 34.2667 2 36.8985 2 40.1333C2 43.3682 4.63184 46 7.8667 46H40.1334C43.3682 46 46 43.3682 46 40.1333C46 36.8985 43.3682 34.2667 40.1333 34.2667ZM40.1333 44.5333H7.8667C5.44042 44.5333 3.4667 42.5596 3.4667 40.1333C3.4667 37.707 5.44042 35.7333 7.8667 35.7333H40.1334C42.5597 35.7333 44.5334 37.707 44.5334 40.1333C44.5333 42.5597 42.5597 44.5333 40.1333 44.5333Z" fill="#FCCF3C"/>
</svg>
