<svg width="40" height="40" viewBox="0 0 40 40" fill="none" xmlns="http://www.w3.org/2000/svg">
<path d="M26.8874 26.4731C26.1718 26.0206 25.3574 25.6388 24.4418 25.3137V23.6994C26.5468 22.7806 27.9768 21.0112 27.9768 18.9825V14.7594H28.1081C29.0493 14.7594 29.8149 14.005 29.8149 13.0781V12.47C29.8149 11.5712 29.0943 10.8337 28.1924 10.79V9.73312C28.1924 7.1975 26.7099 4.84938 24.3006 3.515V3.46C24.3007 3.01503 24.1244 2.58815 23.8103 2.27298C23.4962 1.95781 23.0699 1.78007 22.6249 1.77875C22.3587 1.77875 22.1099 1.8475 21.8862 1.95875C21.7325 1.74031 21.5287 1.56193 21.2919 1.4386C21.055 1.31527 20.792 1.25059 20.5249 1.25H19.4749C19.2079 1.25059 18.9449 1.31527 18.708 1.4386C18.4711 1.56193 18.2673 1.74031 18.1137 1.95875C17.8849 1.84188 17.6319 1.78023 17.3749 1.77875C16.93 1.78007 16.5037 1.95781 16.1896 2.27298C15.8754 2.58815 15.6991 3.01503 15.6993 3.46V3.51438C13.2905 4.84875 11.8074 7.19687 11.8074 9.7325V10.7894C10.9055 10.8325 10.1849 11.57 10.1849 12.4694V13.0775C10.1849 14.0044 10.9505 14.7587 11.8918 14.7587H12.023V18.9819C12.023 21.0106 13.453 22.78 15.558 23.6987V25.3131C14.6424 25.6388 13.828 26.0206 13.1124 26.4725C7.00742 28.1137 3.7793 32.1381 3.7793 38.125C3.7793 38.2908 3.84515 38.4497 3.96236 38.5669C4.07957 38.6842 4.23854 38.75 4.4043 38.75H35.5956C35.7613 38.75 35.9203 38.6842 36.0375 38.5669C36.1547 38.4497 36.2206 38.2908 36.2206 38.125C36.2206 32.1381 32.9924 28.1137 26.8874 26.4731ZM11.4343 13.0775V12.4694C11.4343 12.2356 11.6437 12.0381 11.8912 12.0381H12.4318C12.5976 12.0381 12.7565 11.9723 12.8737 11.8551C12.991 11.7379 13.0568 11.5789 13.0568 11.4131V9.73312C13.0568 7.87625 14.0512 6.135 15.6987 4.99V5.41313C15.6987 5.57889 15.7645 5.73786 15.8817 5.85507C15.9989 5.97228 16.1579 6.03813 16.3237 6.03813C16.4894 6.03813 16.6484 5.97228 16.7656 5.85507C16.8828 5.73786 16.9487 5.57889 16.9487 5.41313V3.46C16.9487 3.22625 17.1437 3.02875 17.3743 3.02875C17.6087 3.02875 17.7993 3.2225 17.7993 3.46V4.35688C17.7993 4.52264 17.8651 4.68161 17.9824 4.79882C18.0996 4.91603 18.2585 4.98188 18.4243 4.98188C18.5901 4.98188 18.749 4.91603 18.8662 4.79882C18.9835 4.68161 19.0493 4.52264 19.0493 4.35688V2.93125C19.0493 2.6975 19.2443 2.5 19.4749 2.5H20.5255C20.7562 2.5 20.9512 2.6975 20.9512 2.93125V4.35688C20.9512 4.52264 21.017 4.68161 21.1342 4.79882C21.2514 4.91603 21.4104 4.98188 21.5762 4.98188C21.7419 4.98188 21.9009 4.91603 22.0181 4.79882C22.1353 4.68161 22.2012 4.52264 22.2012 4.35688V3.46C22.2012 3.22187 22.3918 3.02875 22.6262 3.02875C22.8568 3.02875 23.0518 3.22625 23.0518 3.46V5.41313C23.0518 5.57889 23.1176 5.73786 23.2349 5.85507C23.3521 5.97228 23.511 6.03813 23.6768 6.03813C23.8426 6.03813 24.0015 5.97228 24.1187 5.85507C24.236 5.73786 24.3018 5.57889 24.3018 5.41313V4.99C25.9487 6.13438 26.9437 7.87563 26.9437 9.73312V11.4131C26.9437 11.5789 27.0095 11.7379 27.1267 11.8551C27.2439 11.9723 27.4029 12.0381 27.5687 12.0381H28.1093C28.3568 12.0381 28.5662 12.2356 28.5662 12.4694V13.0775C28.5662 13.3112 28.3568 13.5087 28.1093 13.5087H11.8912C11.6437 13.5087 11.4343 13.3112 11.4343 13.0775ZM13.2724 18.9819V14.7587H26.7268V18.9819C26.7268 21.2631 24.2255 23.1194 21.1505 23.1194H18.8487C15.7743 23.1194 13.2724 21.2631 13.2724 18.9819ZM18.8493 24.3694H21.1512C21.8624 24.3694 22.548 24.2825 23.1931 24.1225L23.1949 26.9738C23.1968 26.9969 23.2324 27.5575 22.7737 28.0513C22.2649 28.5994 21.3055 28.8894 19.9999 28.8894C18.6943 28.8894 17.7355 28.5994 17.2262 28.0513C16.7674 27.5575 16.803 26.9969 16.8043 26.9819C16.8062 26.9613 16.8074 26.94 16.8074 26.9181V24.1225C17.4524 24.2825 18.138 24.3694 18.8493 24.3694ZM16.2824 28.8713C17.0418 29.7125 18.2924 30.1388 19.9999 30.1388C21.7074 30.1388 22.9581 29.7119 23.7174 28.8713C24.4674 28.0406 24.4568 27.115 24.4424 26.8937V26.6394C25.0437 26.8731 25.5887 27.135 26.0824 27.4312C26.0924 27.4431 26.0962 27.4581 26.1074 27.4694C26.1824 27.5444 26.2724 27.59 26.3674 27.6187C29.0312 29.3675 30.0668 32.26 30.1424 37.5H9.85805C9.93305 32.26 10.9693 29.3675 13.633 27.6187C13.7308 27.5913 13.8201 27.54 13.893 27.4694C13.9043 27.4581 13.908 27.4431 13.918 27.4312C14.4412 27.1212 14.9899 26.8563 15.558 26.6394V26.8937C15.543 27.1156 15.5324 28.0406 16.2824 28.8713ZM10.7655 28.645C9.3143 30.655 8.66992 33.4888 8.6093 37.5H5.0418C5.21492 33.3419 7.13555 30.375 10.7655 28.645ZM31.3906 37.5C31.3299 33.4894 30.6856 30.655 29.2343 28.645C32.8643 30.375 34.7849 33.3419 34.9581 37.5H31.3906Z" fill="#FCCF3C"/>
</svg>
