<svg width="48" height="48" viewBox="0 0 48 48" fill="none" xmlns="http://www.w3.org/2000/svg">
<g clip-path="url(#clip0_7_390)">
<path d="M14.7817 8.71484C16.3447 8.71484 17.7305 9.70916 18.2296 11.1889C18.2577 11.278 18.3034 11.3607 18.3639 11.432C18.4243 11.5033 18.4984 11.5618 18.5817 11.6041C18.6651 11.6464 18.756 11.6717 18.8493 11.6785C18.9425 11.6852 19.0362 11.6733 19.1247 11.6434C19.2133 11.6136 19.2951 11.5663 19.3652 11.5045C19.4353 11.4427 19.4924 11.3675 19.5331 11.2833C19.5738 11.1992 19.5973 11.1077 19.6022 11.0144C19.6072 10.921 19.5935 10.8276 19.5619 10.7397C18.8697 8.68747 16.9491 7.30859 14.7817 7.30859C12.0007 7.30859 9.73828 9.57144 9.73828 12.3523C9.73828 15.1334 12.0007 17.3959 14.7817 17.3959C16.949 17.3959 18.8697 16.0171 19.5619 13.9648C19.686 13.5972 19.4887 13.198 19.1206 13.0742C18.9439 13.0146 18.7508 13.0276 18.5837 13.1103C18.4166 13.1931 18.2892 13.3388 18.2296 13.5155C17.7305 14.9953 16.3447 15.9896 14.7817 15.9896C12.7764 15.9896 11.1445 14.3581 11.1445 12.3524C11.1445 10.3467 12.7763 8.71484 14.7817 8.71484Z" fill="#171717"/>
<path d="M25.8519 12.3524C25.8519 8.74519 24.1179 5.53538 21.4394 3.51319C21.4189 3.49383 21.3973 3.47562 21.3747 3.45863C17.4792 0.566625 12.1147 0.544313 8.18925 3.45863C8.1665 3.47543 8.14483 3.49365 8.12438 3.51319C5.44594 5.53575 3.71194 8.74519 3.71194 12.3524V14.1582H2.56594C1.77497 14.1582 1.13184 14.8016 1.13184 15.5923V19.8953C1.13184 20.6859 1.77497 21.3293 2.56594 21.3293H3.71184V39.5337C3.71184 39.7202 3.78592 39.899 3.91778 40.0309C4.04965 40.1628 4.22849 40.2368 4.41497 40.2368C4.60145 40.2368 4.78029 40.1628 4.91215 40.0309C5.04401 39.899 5.11809 39.7202 5.11809 39.5337V27.1924H6.69497V44.2897C6.69497 44.8537 6.23578 45.3125 5.67216 45.3125H5.11809V42.3462C5.11809 42.1597 5.04401 41.9809 4.91215 41.849C4.78029 41.7172 4.60145 41.6431 4.41497 41.6431C4.22849 41.6431 4.04965 41.7172 3.91778 41.849C3.78592 41.9809 3.71184 42.1597 3.71184 42.3462V45.3125H0.796875C0.610395 45.3125 0.431552 45.3865 0.299691 45.5184C0.167829 45.6503 0.09375 45.8291 0.09375 46.0156C0.09375 46.2021 0.167829 46.3809 0.299691 46.5128C0.431552 46.6446 0.610395 46.7187 0.796875 46.7187H5.90663C6 46.7187 6.08944 46.7004 6.17138 46.6672C7.27219 46.4363 8.10131 45.4583 8.10131 44.2897V27.1924H8.57119C8.6998 27.1924 8.82596 27.1572 8.93592 27.0905C9.04588 27.0238 9.13543 26.9282 9.19481 26.8141C10.2847 24.7219 12.4255 23.4226 14.7817 23.4226C20.8861 23.4226 25.8519 18.4564 25.8519 12.3524ZM9.31125 4.38984C12.6024 2.12156 16.9607 2.12119 20.2525 4.38984V5.59922C20.2525 5.93859 20.0185 6.09506 19.9178 6.14672C19.8175 6.19791 19.5549 6.29606 19.281 6.09872C17.9648 5.15025 16.4092 4.64925 14.7821 4.64925C13.1551 4.64925 11.599 5.15025 10.2829 6.09862C10.0093 6.29569 9.74634 6.198 9.64631 6.14672C9.54562 6.09506 9.31162 5.93859 9.31162 5.59922V4.38984H9.31125ZM2.56603 19.9231C2.55865 19.9231 2.55156 19.9202 2.54634 19.9149C2.54112 19.9097 2.53819 19.9026 2.53819 19.8953V15.5922C2.53819 15.5768 2.55066 15.5645 2.56603 15.5645H3.71194V19.9231H2.56603ZM14.7817 22.0163C12.044 22.0163 9.54422 23.4501 8.15841 25.786H5.11809V12.3525C5.11809 9.71175 6.18272 7.31531 7.905 5.56912V5.59912C7.905 6.36169 8.32687 7.05084 9.00516 7.39838C9.29023 7.54483 9.60604 7.62141 9.92653 7.62178C10.3415 7.62178 10.7534 7.49288 11.105 7.23984C12.1802 6.46491 13.4516 6.0555 14.7817 6.0555C16.1122 6.0555 17.3837 6.46491 18.4589 7.23984C19.0763 7.68441 19.8805 7.74553 20.5583 7.39838C21.2369 7.05084 21.6588 6.36169 21.6588 5.59922V5.56922C23.3811 7.31522 24.4457 9.71175 24.4457 12.3525C24.4457 17.6812 20.1105 22.0164 14.7817 22.0164L14.7817 22.0163Z" fill="#171717"/>
<path d="M40.0732 6.80972C40.0732 6.80316 40.0732 6.79659 40.0728 6.79031V3.67566C40.0732 3.66909 40.0732 3.66281 40.0732 3.65625C40.0732 3.64969 40.0732 3.64341 40.0728 3.63684V0.703125C40.0728 0.516645 39.9988 0.337802 39.8669 0.205941C39.735 0.074079 39.5562 0 39.3697 0L31.0794 0C30.6913 0 30.3763 0.315 30.3763 0.703125V10.5853C30.3763 10.7718 30.4504 10.9506 30.5822 11.0825C30.7141 11.2144 30.8929 11.2884 31.0794 11.2884C31.2659 11.2884 31.4447 11.2144 31.5766 11.0825C31.7085 10.9506 31.7825 10.7718 31.7825 10.5853V1.40625H38.6666V2.95312H37.108C36.9215 2.95312 36.7427 3.0272 36.6108 3.15907C36.479 3.29093 36.4049 3.46977 36.4049 3.65625C36.4049 3.84273 36.479 4.02157 36.6108 4.15343C36.7427 4.2853 36.9215 4.35938 37.108 4.35938H38.6666V6.10659H37.108C37.0157 6.10656 36.9242 6.12472 36.8389 6.16004C36.7536 6.19536 36.676 6.24715 36.6107 6.31245C36.5454 6.37775 36.4936 6.45528 36.4583 6.5406C36.423 6.62592 36.4048 6.71737 36.4049 6.80972C36.4049 6.9962 36.479 7.17504 36.6108 7.3069C36.7427 7.43876 36.9215 7.51284 37.108 7.51284H38.6666V9.25997H35.2247C34.8364 9.25997 34.5215 9.57497 34.5215 9.96309C34.5215 10.3513 34.8364 10.6662 35.2247 10.6662H38.6666V12.4134H37.108C37.0157 12.4134 36.9242 12.4316 36.8389 12.4669C36.7536 12.5022 36.676 12.554 36.6107 12.6193C36.5454 12.6846 36.4936 12.7621 36.4583 12.8474C36.423 12.9328 36.4048 13.0242 36.4049 13.1166C36.4049 13.303 36.479 13.4819 36.6108 13.6137C36.7427 13.7456 36.9215 13.8197 37.108 13.8197H38.6666V15.5669H37.108C37.0157 15.5669 36.9242 15.585 36.8389 15.6204C36.7536 15.6557 36.676 15.7075 36.6107 15.7728C36.5454 15.8381 36.4936 15.9156 36.4583 16.0009C36.423 16.0862 36.4048 16.1777 36.4049 16.27C36.4049 16.4565 36.479 16.6354 36.6108 16.7672C36.7427 16.8991 36.9215 16.9732 37.108 16.9732H38.6666V18.72H35.2247C35.0382 18.72 34.8593 18.7941 34.7275 18.9259C34.5956 19.0578 34.5215 19.2366 34.5215 19.4231C34.5215 19.6096 34.5956 19.7884 34.7275 19.9203C34.8593 20.0522 35.0382 20.1262 35.2247 20.1262H38.6666V21.8734H37.108C36.9215 21.8734 36.7427 21.9475 36.6108 22.0793C36.479 22.2112 36.4049 22.39 36.4049 22.5765C36.4049 22.9651 36.7195 23.2796 37.108 23.2796H38.6666V25.0268H37.108C36.9215 25.0268 36.7427 25.1009 36.6108 25.2328C36.479 25.3646 36.4049 25.5435 36.4049 25.73C36.4049 26.1186 36.7195 26.4331 37.108 26.4331H38.6666V28.1803H35.2247C34.8364 28.1803 34.5215 28.4953 34.5215 28.8834C34.5215 29.2716 34.8364 29.5866 35.2247 29.5866H38.6666V31.3338H37.108C36.9215 31.3338 36.7427 31.4079 36.6108 31.5397C36.479 31.6716 36.4049 31.8504 36.4049 32.0369C36.4049 32.2234 36.479 32.4022 36.6108 32.5341C36.7427 32.666 36.9215 32.74 37.108 32.74H38.6666V34.4872H37.108C36.9215 34.4872 36.7427 34.5612 36.6108 34.6931C36.479 34.825 36.4049 35.0038 36.4049 35.1903C36.4049 35.3768 36.479 35.5556 36.6108 35.6875C36.7427 35.8193 36.9215 35.8934 37.108 35.8934H38.6666V42.2468L36.8971 38.6719C36.4953 37.8611 35.6838 37.3572 34.779 37.3572H31.7826V13.3978C31.7826 13.2113 31.7085 13.0325 31.5767 12.9006C31.4448 12.7688 31.266 12.6947 31.0795 12.6947C30.893 12.6947 30.7142 12.7688 30.5823 12.9006C30.4505 13.0325 30.3764 13.2113 30.3764 13.3978V37.3572H17.5081C16.4311 37.3572 15.5547 38.2335 15.5547 39.3105V46.0466C15.5547 47.1236 16.4311 48 17.5081 48H37.7079C38.5308 48 39.2815 47.5825 39.7158 46.8831C39.8799 46.6194 39.9906 46.3262 40.0417 46.0199C40.0619 45.954 40.0728 45.884 40.0728 45.8115V45.6614C40.0732 45.6457 40.0732 45.6299 40.0728 45.6142V35.2097C40.0732 35.203 40.0732 35.1968 40.0732 35.1902C40.0732 35.184 40.0732 35.1774 40.0728 35.1708V32.0562C40.0732 32.0497 40.0732 32.0434 40.0732 32.0368C40.0732 32.0305 40.0732 32.024 40.0728 32.0177V28.9031C40.0732 28.8966 40.0732 28.89 40.0732 28.8837C40.0732 28.8772 40.0732 28.8706 40.0728 28.8643V25.7497C40.0732 25.7431 40.0732 25.7368 40.0732 25.7302C40.0732 25.7241 40.0732 25.7174 40.0728 25.7112V22.5962C40.0732 22.59 40.0732 22.5834 40.0732 22.5772C40.0732 22.5706 40.0732 22.564 40.0728 22.5578V19.4432C40.0732 19.4366 40.0732 19.4303 40.0732 19.4237C40.0732 19.417 40.0732 19.4109 40.0728 19.4043V16.2897C40.0732 16.2832 40.0732 16.2769 40.0732 16.2703C40.0732 16.264 40.0732 16.2575 40.0728 16.2513V13.1362C40.0732 13.1301 40.0732 13.1234 40.0732 13.1172C40.0732 13.1107 40.0732 13.1041 40.0728 13.0978V9.98316C40.0732 9.97659 40.0732 9.97041 40.0732 9.96375C40.0732 9.95756 40.0732 9.951 40.0728 9.94434V6.82903C40.0732 6.82247 40.0732 6.816 40.0732 6.80972ZM37.7079 46.5938H17.5081C17.363 46.5936 17.2239 46.5359 17.1214 46.4333C17.0188 46.3308 16.9611 46.1917 16.9609 46.0466V39.3106C16.9611 39.1655 17.0188 39.0265 17.1214 38.9239C17.224 38.8214 17.363 38.7637 17.5081 38.7635H31.0615C31.0674 38.7637 31.0737 38.7638 31.0795 38.7638C31.0857 38.7638 31.0916 38.7637 31.0978 38.7635H34.779C35.1455 38.7635 35.474 38.9674 35.6366 39.296L38.5655 45.2121C38.6263 45.3338 38.6608 45.4669 38.6666 45.6028V45.6745C38.6663 45.683 38.6659 45.6914 38.6652 45.6998C38.6615 45.7241 38.6589 45.7486 38.6575 45.7731C38.6378 45.904 38.5913 46.0294 38.5209 46.1415C38.3425 46.4289 38.0462 46.5938 37.7079 46.5938Z" fill="#171717"/>
</g>
<defs>
<clipPath id="clip0_7_390">
<rect width="48" height="48" fill="white"/>
</clipPath>
</defs>
</svg>
