<svg width="48" height="48" viewBox="0 0 48 48" fill="none" xmlns="http://www.w3.org/2000/svg">
<path d="M42.9844 16.9688C44.1992 16.9688 45.1875 15.9804 45.1875 14.7656V14.625H45.4219C46.8434 14.625 48 13.4685 48 12.0469V6.42188C48 5.00025 46.8434 3.84375 45.4219 3.84375H45.1875V3.70312C45.1875 2.48831 44.1992 1.5 42.9844 1.5H20.2969C19.3803 1.5 18.5987 2.08791 18.3084 2.90625H16.0781C15.1614 2.90625 14.3795 3.49406 14.0892 4.3125H9.04688C8.93783 4.31345 8.83039 4.33882 8.73244 4.38675L6.43819 5.53387C5.87878 5.81353 5.53125 6.37584 5.53125 7.00125V8.53125H0.703125C0.314719 8.53125 0 8.84606 0 9.23438C0 9.62269 0.314719 9.9375 0.703125 9.9375H5.53125V11.4675C5.53125 12.0929 5.87878 12.6552 6.43819 12.9349L8.73244 14.082C8.83086 14.1301 8.93883 14.1555 9.04838 14.1562H14.0898C14.38 14.9746 15.1616 15.5625 16.0782 15.5625H18.3085C18.5988 16.3808 19.3804 16.9688 20.297 16.9688H21.375V21.5156C21.375 22.6788 22.3213 23.625 23.4844 23.625H24.1875V24.3281C24.1875 25.2327 24.9235 25.9688 25.8281 25.9688H27.2119C28.1407 25.9688 28.9501 26.5646 29.226 27.4515L31.0927 33.4515C31.2939 34.0987 31.179 34.7828 30.7772 35.3287C30.3755 35.8745 29.7562 36.1875 29.0785 36.1875H27.6888C26.2751 36.1875 25.125 37.3376 25.125 38.7513V39H20.7656C19.3441 39 18.1875 40.1565 18.1875 41.5781V43.9219C18.1875 45.3435 19.3441 46.5 20.7656 46.5H45.4219C46.8434 46.5 48 45.3435 48 43.9219V41.5781C48 40.1565 46.8434 39 45.4219 39H44.9062V38.7513C44.9062 37.3376 43.7561 36.1875 42.3425 36.1875C42.0916 36.1884 41.8471 36.1084 41.6453 35.9594C41.4435 35.8103 41.2952 35.6001 41.2223 35.3601L39.0007 28.1343C38.3784 26.1115 38.0622 24.007 38.0625 21.8906C38.0625 19.1767 40.2705 16.9688 42.9844 16.9688ZM45.4219 5.25C46.0681 5.25 46.5938 5.77566 46.5938 6.42188V12.0469C46.5938 12.6931 46.0681 13.2188 45.4219 13.2188H45.1875V5.25H45.4219ZM6.9375 11.4675V7.00125C6.9375 6.91191 6.98709 6.83156 7.06716 6.79163L8.34375 6.15328V12.3154L7.06716 11.677C7.02811 11.6577 6.99525 11.6279 6.97233 11.5908C6.94941 11.5538 6.93734 11.5111 6.9375 11.4675ZM15.375 13.4531V8.29688C15.375 7.90856 15.0603 7.59375 14.6719 7.59375C14.2835 7.59375 13.9688 7.90856 13.9688 8.29688V12.75H9.75V5.71875H14.6719C14.8584 5.71875 15.0372 5.64467 15.1691 5.51281C15.3009 5.38095 15.375 5.20211 15.375 5.01562C15.375 4.62788 15.6904 4.3125 16.0781 4.3125H18.1875V14.1562H16.0781C15.6904 14.1562 15.375 13.8409 15.375 13.4531ZM23.4844 22.2188C23.0966 22.2188 22.7812 21.9034 22.7812 21.5156V16.9688H23.4844C23.8721 16.9688 24.1875 17.2841 24.1875 17.6719V22.2188H23.4844ZM36.6562 21.8906C36.6562 24.1493 36.9928 26.3889 37.6566 28.5475L39.8782 35.7733C40.2129 36.8622 41.2033 37.5938 42.3425 37.5938C42.9807 37.5938 43.5 38.113 43.5 38.7513V39H41.5862C41.1978 39 40.8831 39.3148 40.8831 39.7031C40.8831 40.0914 41.1978 40.4062 41.5862 40.4062H45.4219C46.0681 40.4062 46.5938 40.9319 46.5938 41.5781V43.9219C46.5938 44.5681 46.0681 45.0938 45.4219 45.0938H20.7656C20.1194 45.0938 19.5938 44.5681 19.5938 43.9219V41.5781C19.5938 40.9319 20.1194 40.4062 20.7656 40.4062H38.3049C38.6933 40.4062 39.0081 40.0914 39.0081 39.7031C39.0081 39.3148 38.6933 39 38.3049 39H26.5312V38.7513C26.5312 38.113 27.0505 37.5938 27.6888 37.5938H29.0785C30.2081 37.5938 31.24 37.072 31.9097 36.1623C32.5794 35.2526 32.7711 34.1123 32.4353 33.0337L30.5687 27.0337C30.1088 25.5556 28.7598 24.5625 27.2119 24.5625H25.8281C25.766 24.5624 25.7064 24.5377 25.6625 24.4938C25.6185 24.4498 25.5938 24.3903 25.5938 24.3281V17.6719C25.5938 16.5087 24.6474 15.5625 23.4844 15.5625H20.2969C19.9091 15.5625 19.5938 15.2471 19.5938 14.8594V3.60938C19.5938 3.22162 19.9091 2.90625 20.2969 2.90625H42.9844C43.4238 2.90625 43.7812 3.26372 43.7812 3.70312V14.7656C43.7812 15.205 43.4238 15.5625 42.9844 15.5625C39.495 15.5625 36.6562 18.4012 36.6562 21.8906Z" fill="#171717"/>
<path d="M33.9844 4.3125H22.1719C21.5257 4.3125 21 4.83816 21 5.48438V12.9844C21 13.6306 21.5257 14.1562 22.1719 14.1562H33.9844C34.6306 14.1562 35.1562 13.6306 35.1562 12.9844V5.48438C35.1562 4.83816 34.6306 4.3125 33.9844 4.3125ZM33.75 12.75H22.4062V5.71875H33.75V12.75ZM41.6719 12.75H37.3594C36.971 12.75 36.6562 13.0648 36.6562 13.4531C36.6562 13.8414 36.971 14.1562 37.3594 14.1562H41.6719C42.0603 14.1562 42.375 13.8414 42.375 13.4531C42.375 13.0648 42.0603 12.75 41.6719 12.75ZM41.6719 9.9375H37.3594C36.971 9.9375 36.6562 10.2523 36.6562 10.6406C36.6562 11.0289 36.971 11.3438 37.3594 11.3438H41.6719C42.0603 11.3438 42.375 11.0289 42.375 10.6406C42.375 10.2523 42.0603 9.9375 41.6719 9.9375ZM41.6719 7.125H37.3594C36.971 7.125 36.6562 7.43981 36.6562 7.82812C36.6562 8.21644 36.971 8.53125 37.3594 8.53125H41.6719C42.0603 8.53125 42.375 8.21644 42.375 7.82812C42.375 7.43981 42.0603 7.125 41.6719 7.125ZM41.6719 4.3125H37.3594C36.971 4.3125 36.6562 4.62731 36.6562 5.01562C36.6562 5.40394 36.971 5.71875 37.3594 5.71875H41.6719C42.0603 5.71875 42.375 5.40394 42.375 5.01562C42.375 4.62731 42.0603 4.3125 41.6719 4.3125Z" fill="#171717"/>
</svg>
