<svg width="48" height="48" viewBox="0 0 48 48" fill="none" xmlns="http://www.w3.org/2000/svg">
<path d="M36.1752 24.2461C34.21 24.2461 32.3536 24.8868 30.8066 26.0989C30.6635 26.2149 30.5718 26.3824 30.5511 26.5655C30.5304 26.7485 30.5825 26.9323 30.6961 27.0773C30.8097 27.2223 30.9758 27.3168 31.1584 27.3405C31.3411 27.3642 31.5258 27.3152 31.6726 27.204C32.9701 26.1874 34.5271 25.65 36.1752 25.65C40.2055 25.65 43.4844 28.9289 43.4844 32.9592C43.4844 36.9895 40.2055 40.2684 36.1752 40.2684C32.1449 40.2684 28.866 36.9895 28.866 32.9592C28.8651 31.5842 29.2533 30.2369 29.9858 29.0732C30.0836 28.9156 30.1151 28.7258 30.0734 28.5451C30.0317 28.3644 29.9202 28.2076 29.7632 28.1088C29.6063 28.01 29.4166 27.9774 29.2357 28.018C29.0547 28.0586 28.8972 28.1691 28.7975 28.3254C27.924 29.7131 27.461 31.3195 27.4619 32.9592C27.4619 37.7637 31.3706 41.6725 36.1752 41.6725C40.9798 41.6725 44.8885 37.7638 44.8885 32.9592C44.8885 28.1549 40.9798 24.2461 36.1752 24.2461Z" fill="#FCCF3C"/>
<path d="M41.6811 33.3051H36.8771V28.5012C36.8741 28.317 36.7989 28.1413 36.6675 28.0121C36.5362 27.883 36.3594 27.8105 36.1751 27.8105C35.9909 27.8105 35.8141 27.883 35.6828 28.0121C35.5514 28.1413 35.4762 28.317 35.4731 28.5012V34.0072C35.4732 34.1934 35.5471 34.3719 35.6788 34.5036C35.8104 34.6352 35.989 34.7092 36.1751 34.7092H41.6811C41.8659 34.7071 42.0424 34.6322 42.1723 34.5007C42.3022 34.3693 42.3751 34.192 42.3751 34.0072C42.3751 33.8223 42.3022 33.645 42.1723 33.5136C42.0424 33.3821 41.8659 33.3072 41.6811 33.3051Z" fill="#FCCF3C"/>
<path d="M42.8943 23.2356V11.0583C42.8943 9.22852 41.4055 7.73976 39.5756 7.73976H38.069V6.01205C38.069 4.4707 36.8151 3.2168 35.2737 3.2168C33.7324 3.2168 32.4785 4.4707 32.4785 6.01205V7.73967H28.8514V6.01205C28.8514 4.4707 27.5975 3.2168 26.0561 3.2168C24.5148 3.2168 23.2609 4.4707 23.2609 6.01205V7.73967H19.6338V6.01205C19.6338 4.4707 18.3799 3.2168 16.8385 3.2168C15.2972 3.2168 14.0433 4.4707 14.0433 6.01205V7.73967H10.4162V6.01205C10.4162 4.4707 9.16228 3.2168 7.62094 3.2168C6.07959 3.2168 4.82541 4.4707 4.82541 6.01205V7.73967H3.31856C1.48875 7.73967 0 9.22833 0 11.0583V11.4046C0.0030104 11.5888 0.0782948 11.7645 0.209618 11.8937C0.340941 12.0229 0.51778 12.0953 0.702 12.0953C0.88622 12.0953 1.06306 12.0229 1.19438 11.8937C1.32571 11.7645 1.40099 11.5888 1.404 11.4046V11.0583C1.404 10.0027 2.26294 9.14377 3.31856 9.14377H4.82522V10.8714C4.82522 12.4127 6.07913 13.6666 7.62047 13.6666C9.16181 13.6666 10.4157 12.4127 10.4157 10.8713V9.14377H14.0428V10.8714C14.0428 12.4127 15.2967 13.6666 16.8381 13.6666C18.3794 13.6666 19.6333 12.4127 19.6333 10.8713V9.14377H23.2604V10.8714C23.2604 12.4127 24.5143 13.6666 26.0557 13.6666C27.597 13.6666 28.8509 12.4127 28.8509 10.8713V9.14377H32.478V10.8714C32.478 12.4127 33.7319 13.6666 35.2732 13.6666C36.8146 13.6666 38.0685 12.4127 38.0685 10.8713V9.14377H39.5752C40.6309 9.14377 41.4898 10.0027 41.4898 11.0583V16.013H1.404V14.2126C1.40099 14.0284 1.32571 13.8528 1.19438 13.7236C1.06306 13.5944 0.88622 13.522 0.702 13.522C0.51778 13.522 0.340941 13.5944 0.209618 13.7236C0.0782948 13.8528 0.0030104 14.0284 0 14.2126L0 38.4397C0 40.2696 1.48875 41.7584 3.31856 41.7584H28.2837C30.3783 43.639 33.1452 44.785 36.1752 44.785C38.7052 44.785 41.1188 43.9965 43.1553 42.505C43.3026 42.3939 43.4003 42.2293 43.4272 42.0467C43.4541 41.8642 43.408 41.6784 43.299 41.5295C43.1899 41.3807 43.0267 41.2807 42.8445 41.2513C42.6624 41.2219 42.4759 41.2653 42.3256 41.3723C40.5315 42.6864 38.4048 43.3809 36.1751 43.3809C30.4291 43.3809 25.7544 38.7061 25.7544 32.9602C25.7544 27.2143 30.4292 22.5395 36.1751 22.5395C37.2148 22.5395 38.2503 22.695 39.2441 23.0009C39.2638 23.0069 39.2832 23.0131 39.3029 23.0193C43.5254 24.3509 46.5959 28.3035 46.5959 32.9602C46.5959 35.3627 45.7584 37.7072 44.2379 39.562C44.1787 39.6332 44.1342 39.7154 44.1069 39.8038C44.0796 39.8923 44.0701 39.9853 44.0789 40.0775C44.0877 40.1697 44.1146 40.2592 44.1582 40.3409C44.2017 40.4226 44.261 40.4949 44.3326 40.5536C44.4042 40.6123 44.4867 40.6563 44.5753 40.6829C44.664 40.7096 44.757 40.7185 44.8492 40.7091C44.9413 40.6997 45.0306 40.6721 45.112 40.6281C45.1934 40.584 45.2653 40.5242 45.3235 40.4522C47.0495 38.3473 48 35.6865 48 32.9602C48 28.9341 45.9768 25.372 42.8943 23.2356ZM9.01172 10.8713C9.01172 11.6385 8.38763 12.2625 7.62047 12.2625C6.85331 12.2625 6.22922 11.6385 6.22922 10.8713V6.01205C6.22922 5.24489 6.85322 4.6208 7.62047 4.6208C8.38763 4.6208 9.01172 5.2448 9.01172 6.01205V10.8713ZM18.2294 10.8713C18.2294 11.6385 17.6053 12.2625 16.8382 12.2625C16.071 12.2625 15.4469 11.6385 15.4469 10.8713V6.01205C15.4469 5.24489 16.071 4.6208 16.8382 4.6208C17.6053 4.6208 18.2294 5.2448 18.2294 6.01205V10.8713ZM27.4472 10.8713C27.4472 11.6385 26.8231 12.2625 26.0559 12.2625C25.2888 12.2625 24.6647 11.6385 24.6647 10.8713V6.01205C24.6647 5.24489 25.2888 4.6208 26.0559 4.6208C26.8231 4.6208 27.4472 5.2448 27.4472 6.01205V10.8713ZM36.6649 10.8713C36.6649 11.6385 36.0408 12.2625 35.2736 12.2625C34.5065 12.2625 33.8824 11.6385 33.8824 10.8713V6.01205C33.8824 5.24489 34.5065 4.6208 35.2736 4.6208C36.0408 4.6208 36.6649 5.2448 36.6649 6.01205V10.8713ZM18.0001 17.417H24.8941V24.1267H18.0001V17.417ZM8.298 40.3543H3.31856C2.26294 40.3543 1.404 39.4953 1.404 38.4396V33.6445H8.29791L8.298 40.3543ZM8.298 32.2405H1.404V25.5308H8.29791L8.298 32.2405ZM8.298 24.1267H1.404V17.417H8.29791L8.298 24.1267ZM9.702 25.5308H16.5959V32.2405H9.702V25.5308ZM16.5961 40.3543H9.70219V33.6446H16.5961V40.3543ZM16.5961 24.1267H9.70219V17.417H16.5961V24.1267ZM18 25.5308H24.894V29.4139C24.6054 30.3313 24.4305 31.2806 24.373 32.2406H18V25.5308ZM26.9442 40.3543H18.0001V33.6446H24.3702C24.5093 36.1226 25.4026 38.4419 26.9442 40.3543ZM26.2982 26.4668V25.5308H26.9835C26.74 25.8315 26.5113 26.1439 26.2982 26.4668ZM33.1921 21.517C31.3592 21.9951 29.6985 22.9035 28.3237 24.1267H26.2982V17.417H33.1921V21.517ZM41.4902 22.395C40.8304 22.0629 40.1407 21.7938 39.4304 21.5912L39.3851 21.5783C38.3406 21.284 37.2606 21.135 36.1754 21.1353C35.6399 21.1354 35.1129 21.1718 34.5962 21.2411V17.4168H41.4902V22.395Z" fill="#FCCF3C"/>
</svg>
