<svg width="48" height="48" viewBox="0 0 48 48" fill="none" xmlns="http://www.w3.org/2000/svg">
<path d="M33.014 27.2308C32.7831 26.9996 32.5088 26.8162 32.2068 26.6911C31.9049 26.5659 31.5813 26.5015 31.2545 26.5015C30.9277 26.5015 30.6041 26.5659 30.3022 26.6911C30.0002 26.8162 29.7259 26.9996 29.495 27.2308L29.4864 27.2394C28.6747 28.0784 27.4153 29.3735 26.9286 29.8599C23.885 29.7218 21.3475 27.2657 21.2711 24.3413C21.5711 23.9295 22.6887 22.8788 23.1866 22.4101C23.6908 21.9359 23.8774 21.7574 23.9775 21.6349C24.4271 21.1644 24.675 20.5368 24.6682 19.8861C24.6614 19.2354 24.4004 18.6131 23.941 18.1522L19.6316 13.8405C19.4012 13.6086 19.127 13.4247 18.825 13.2995C18.523 13.1743 18.1991 13.1103 17.8722 13.1111C17.2231 13.1094 16.5994 13.363 16.1358 13.8173C13.8268 15.793 12.8883 18.5819 13.4218 21.8842C13.877 24.702 15.4021 27.7933 17.7155 30.5884C19.9177 33.2487 22.6237 35.3582 25.1398 36.3757C25.2315 36.4138 25.3299 36.4334 25.4292 36.4333C25.5285 36.4332 25.6268 36.4135 25.7184 36.3751C25.8101 36.3368 25.8932 36.2807 25.963 36.2101C26.0328 36.1394 26.088 36.0556 26.1252 35.9636C26.1624 35.8715 26.181 35.7729 26.18 35.6736C26.1789 35.5743 26.1581 35.4762 26.1189 35.3849C26.0796 35.2937 26.0227 35.2111 25.9514 35.142C25.88 35.0729 25.7957 35.0187 25.7032 34.9823C20.777 32.9906 15.7311 26.7579 14.9053 21.6448C14.452 18.8398 15.2009 16.5854 17.1308 14.9443L17.1753 14.9032C17.2666 14.8115 17.3752 14.7387 17.4948 14.6891C17.6144 14.6395 17.7426 14.6142 17.8721 14.6145C18.0016 14.6142 18.1298 14.6396 18.2494 14.6891C18.3689 14.7387 18.4775 14.8115 18.5688 14.9033L22.8781 19.215C23.0627 19.4002 23.1664 19.6511 23.1664 19.9126C23.1664 20.1741 23.0627 20.425 22.8781 20.6102L22.8257 20.6626L22.8039 20.6952C22.718 20.7883 22.4208 21.0677 22.157 21.3157C21.6966 21.7486 21.1236 22.2875 20.669 22.7599C20.175 23.2731 19.6666 23.8014 19.7681 24.3475C19.8497 28.1705 23.2245 31.3694 27.1963 31.3689H27.2232C27.5513 31.3689 27.6391 31.2798 28.2126 30.6997C28.4784 30.431 28.829 30.0726 29.1783 29.7142C29.8413 29.0339 30.5001 28.3536 30.5618 28.2893C30.7468 28.106 30.9969 28.0035 31.2573 28.0042C31.5177 28.0049 31.7672 28.1087 31.9512 28.293L35.4717 31.8154C35.921 32.2868 36.1291 32.8091 36.0898 33.3667C36.0386 34.0942 35.5727 34.8547 34.8115 35.4532L34.7834 35.4764C33.4535 36.631 31.1084 36.3313 29.2233 36.0905L29.1718 36.0839C28.9761 36.0626 28.7798 36.119 28.6252 36.2409C28.4706 36.3628 28.37 36.5405 28.3451 36.7358C28.3202 36.9311 28.3728 37.1283 28.4918 37.2852C28.6108 37.442 28.7866 37.5459 28.9814 37.5745L29.0329 37.5811C29.9227 37.6947 30.901 37.8198 31.8727 37.8198C32.2477 37.8209 32.6224 37.799 32.9947 37.7542V43.6499C32.9938 44.4046 32.6936 45.1281 32.16 45.6617C31.6264 46.1953 30.9029 46.4955 30.1482 46.4964H12.3201C11.5655 46.4955 10.842 46.1953 10.3084 45.6617C9.7748 45.128 9.47462 44.4046 9.4737 43.6499V4.34944C9.47462 3.59479 9.7748 2.87131 10.3084 2.33768C10.842 1.80406 11.5655 1.50385 12.3201 1.50291H30.148C30.9027 1.50382 31.6262 1.80402 32.1598 2.33765C32.6934 2.87128 32.9936 3.59477 32.9945 4.34944V9.43706C32.9934 9.53645 33.0121 9.63507 33.0493 9.72722C33.0866 9.81936 33.1418 9.9032 33.2116 9.97387C33.2815 10.0445 33.3648 10.1007 33.4565 10.1389C33.5482 10.1772 33.6466 10.197 33.746 10.197C33.8454 10.197 33.9438 10.1772 34.0355 10.1389C34.1272 10.1007 34.2105 10.0445 34.2803 9.97387C34.3502 9.9032 34.4054 9.81936 34.4427 9.72722C34.4799 9.63507 34.4986 9.53645 34.4975 9.43706V4.34944C34.4962 3.19629 34.0375 2.09074 33.2221 1.27535C32.4067 0.459948 31.3012 0.00129032 30.148 0L12.3201 0C11.167 0.00129032 10.0614 0.459948 9.24605 1.27535C8.43065 2.09074 7.97199 3.19629 7.9707 4.34944V43.6506C7.97199 44.8037 8.43065 45.9093 9.24605 46.7247C10.0614 47.5401 11.167 47.9987 12.3201 48H30.148C31.3012 47.9987 32.4067 47.5401 33.2221 46.7247C34.0375 45.9093 34.4962 44.8037 34.4975 43.6506V37.3809C34.9554 37.1996 35.3801 36.9438 35.7545 36.6237C36.8401 35.7648 37.5084 34.6175 37.589 33.4724C37.6584 32.4856 37.2997 31.5514 36.5518 30.7705L33.014 27.2308Z" fill="#171717"/>
<path d="M26.9945 17.3126C30.171 18.0981 33.0748 20.9688 33.8993 24.1376C33.9242 24.2331 33.9676 24.3227 34.0271 24.4015C34.0866 24.4802 34.161 24.5464 34.2461 24.5964C34.3312 24.6463 34.4253 24.679 34.523 24.6926C34.6208 24.7062 34.7202 24.7004 34.8157 24.6756C34.9112 24.6508 35.0009 24.6073 35.0796 24.5478C35.1583 24.4883 35.2246 24.4139 35.2745 24.3288C35.3245 24.2437 35.3572 24.1496 35.3708 24.0519C35.3844 23.9541 35.3786 23.8547 35.3538 23.7592C34.8883 21.9697 33.8336 20.1952 32.3842 18.7628C30.9348 17.3304 29.1489 16.2972 27.3554 15.8536C27.2596 15.8299 27.1601 15.8253 27.0625 15.8401C26.9649 15.8549 26.8712 15.8887 26.7867 15.9397C26.6161 16.0427 26.4933 16.2092 26.4455 16.4027C26.3976 16.5961 26.4286 16.8007 26.5316 16.9713C26.6345 17.142 26.8011 17.2647 26.9945 17.3126ZM40.0186 23.5805C39.1194 17.5163 33.6693 12.0446 27.6108 11.1235C27.5127 11.1075 27.4124 11.1111 27.3157 11.1341C27.219 11.1571 27.1279 11.199 27.0475 11.2575C26.9671 11.316 26.8992 11.3898 26.8476 11.4747C26.7959 11.5597 26.7616 11.654 26.7467 11.7522C26.7318 11.8505 26.7365 11.9507 26.7605 12.0471C26.7846 12.1436 26.8276 12.2343 26.8869 12.314C26.9463 12.3937 27.0209 12.4608 27.1063 12.5115C27.1918 12.5622 27.2865 12.5955 27.3849 12.6093C32.7369 13.423 37.7375 18.4436 38.5318 23.8009C38.5454 23.8992 38.5784 23.9939 38.6289 24.0794C38.6793 24.1649 38.7462 24.2395 38.8257 24.299C38.9051 24.3585 38.9956 24.4017 39.0918 24.4261C39.188 24.4504 39.2882 24.4555 39.3863 24.4409C39.4845 24.4263 39.5789 24.3925 39.6639 24.3413C39.7489 24.29 39.823 24.2225 39.8818 24.1425C39.9405 24.0625 39.9829 23.9716 40.0063 23.8752C40.0298 23.7787 40.034 23.6786 40.0186 23.5805ZM22.3552 44.839C22.5531 44.8368 22.7421 44.7566 22.8812 44.6159C23.0203 44.4752 23.0983 44.2854 23.0983 44.0875C23.0983 43.8897 23.0203 43.6998 22.8812 43.5591C22.7421 43.4184 22.5531 43.3383 22.3552 43.3361H20.1117C20.0123 43.335 19.9137 43.3536 19.8215 43.3908C19.7294 43.4281 19.6456 43.4833 19.5749 43.5532C19.5042 43.6231 19.4481 43.7063 19.4098 43.798C19.3715 43.8897 19.3518 43.9881 19.3518 44.0875C19.3518 44.1869 19.3715 44.2853 19.4098 44.377C19.4481 44.4688 19.5042 44.552 19.5749 44.6219C19.6456 44.6918 19.7294 44.7469 19.8215 44.7842C19.9137 44.8215 20.0123 44.8401 20.1117 44.839H22.3552ZM25.8535 3.5645H16.6134C16.514 3.56339 16.4154 3.58201 16.3233 3.61927C16.2311 3.65654 16.1473 3.71171 16.0766 3.7816C16.0059 3.85149 15.9498 3.93471 15.9115 4.02643C15.8732 4.11815 15.8535 4.21656 15.8535 4.31595C15.8535 4.41535 15.8732 4.51376 15.9115 4.60548C15.9498 4.6972 16.0059 4.78041 16.0766 4.8503C16.1473 4.92019 16.2311 4.97537 16.3233 5.01263C16.4154 5.0499 16.514 5.06852 16.6134 5.06741H25.8535C26.0513 5.0652 26.2403 4.98505 26.3795 4.84437C26.5186 4.70368 26.5966 4.51381 26.5966 4.31595C26.5966 4.1181 26.5186 3.92822 26.3795 3.78754C26.2403 3.64685 26.0513 3.56671 25.8535 3.5645Z" fill="#171717"/>
</svg>
