<svg width="48" height="48" viewBox="0 0 48 48" fill="none" xmlns="http://www.w3.org/2000/svg">
<path d="M33.015 27.2308C32.784 26.9996 32.5097 26.8162 32.2078 26.6911C31.9059 26.5659 31.5823 26.5015 31.2555 26.5015C30.9287 26.5015 30.605 26.5659 30.3031 26.6911C30.0012 26.8162 29.7269 26.9996 29.4959 27.2308L29.4874 27.2394C28.6757 28.0784 27.4163 29.3735 26.9296 29.8599C23.8859 29.7218 21.3485 27.2657 21.2721 24.3413C21.5721 23.9295 22.6897 22.8788 23.1876 22.4101C23.6918 21.9359 23.8783 21.7574 23.9785 21.6349C24.4281 21.1644 24.676 20.5368 24.6692 19.8861C24.6624 19.2354 24.4014 18.6131 23.942 18.1522L19.6326 13.8405C19.4021 13.6086 19.128 13.4247 18.826 13.2995C18.524 13.1743 18.2001 13.1103 17.8732 13.1111C17.2241 13.1094 16.6004 13.363 16.1367 13.8173C13.8278 15.793 12.8892 18.5819 13.4228 21.8842C13.878 24.702 15.4031 27.7933 17.7165 30.5884C19.9187 33.2487 22.6247 35.3582 25.1408 36.3757C25.2325 36.4138 25.3308 36.4334 25.4302 36.4333C25.5295 36.4332 25.6278 36.4135 25.7194 36.3751C25.8111 36.3368 25.8942 36.2807 25.964 36.2101C26.0338 36.1394 26.0889 36.0556 26.1262 35.9636C26.1634 35.8715 26.182 35.7729 26.1809 35.6736C26.1799 35.5743 26.1591 35.4762 26.1199 35.3849C26.0806 35.2937 26.0237 35.2111 25.9523 35.142C25.881 35.0729 25.7967 35.0187 25.7042 34.9823C20.7779 32.9906 15.7321 26.7579 14.9063 21.6448C14.453 18.8398 15.2019 16.5854 17.1318 14.9443L17.1762 14.9032C17.2675 14.8115 17.3761 14.7387 17.4958 14.6891C17.6154 14.6395 17.7436 14.6142 17.8731 14.6145C18.0025 14.6142 18.1308 14.6396 18.2503 14.6891C18.3699 14.7387 18.4785 14.8115 18.5697 14.9033L22.8791 19.215C23.0637 19.4002 23.1674 19.6511 23.1674 19.9126C23.1674 20.1741 23.0637 20.425 22.8791 20.6102L22.8266 20.6626L22.8049 20.6952C22.7189 20.7883 22.4217 21.0677 22.158 21.3157C21.6976 21.7486 21.1246 22.2875 20.6699 22.7599C20.176 23.2731 19.6676 23.8014 19.7691 24.3475C19.8506 28.1705 23.2255 31.3694 27.1973 31.3689H27.2242C27.5523 31.3689 27.6401 31.2798 28.2136 30.6997C28.4794 30.431 28.8299 30.0726 29.1792 29.7142C29.8422 29.0339 30.5011 28.3536 30.5628 28.2893C30.7478 28.106 30.9979 28.0035 31.2583 28.0042C31.5187 28.0049 31.7682 28.1087 31.9522 28.293L35.4727 31.8154C35.922 32.2868 36.1301 32.8091 36.0908 33.3667C36.0396 34.0942 35.5736 34.8547 34.8125 35.4532L34.7844 35.4764C33.4544 36.631 31.1094 36.3313 29.2242 36.0905L29.1728 36.0839C28.9771 36.0626 28.7808 36.119 28.6262 36.2409C28.4716 36.3628 28.371 36.5405 28.3461 36.7358C28.3211 36.9311 28.3738 37.1283 28.4928 37.2852C28.6118 37.442 28.7876 37.5459 28.9824 37.5745L29.0338 37.5811C29.9237 37.6947 30.902 37.8198 31.8737 37.8198C32.2487 37.8209 32.6234 37.799 32.9957 37.7542V43.6499C32.9948 44.4046 32.6946 45.1281 32.161 45.6617C31.6273 46.1953 30.9038 46.4955 30.1492 46.4964H12.3211C11.5665 46.4955 10.843 46.1953 10.3094 45.6617C9.77578 45.128 9.4756 44.4046 9.47468 43.6499V4.34944C9.4756 3.59479 9.77578 2.87131 10.3094 2.33768C10.843 1.80406 11.5665 1.50385 12.3211 1.50291H30.149C30.9037 1.50382 31.6271 1.80402 32.1608 2.33765C32.6944 2.87128 32.9946 3.59477 32.9955 4.34944V9.43706C32.9944 9.53645 33.013 9.63507 33.0503 9.72722C33.0876 9.81936 33.1427 9.9032 33.2126 9.97387C33.2825 10.0445 33.3657 10.1007 33.4575 10.1389C33.5492 10.1772 33.6476 10.197 33.747 10.197C33.8464 10.197 33.9448 10.1772 34.0365 10.1389C34.1282 10.1007 34.2114 10.0445 34.2813 9.97387C34.3512 9.9032 34.4064 9.81936 34.4437 9.72722C34.4809 9.63507 34.4995 9.53645 34.4984 9.43706V4.34944C34.4971 3.19629 34.0385 2.09074 33.2231 1.27535C32.4077 0.459948 31.3021 0.00129032 30.149 0L12.3211 0C11.168 0.00129032 10.0624 0.459948 9.24703 1.27535C8.43163 2.09074 7.97297 3.19629 7.97168 4.34944V43.6506C7.97297 44.8037 8.43163 45.9093 9.24703 46.7247C10.0624 47.5401 11.168 47.9987 12.3211 48H30.149C31.3021 47.9987 32.4077 47.5401 33.2231 46.7247C34.0385 45.9093 34.4971 44.8037 34.4984 43.6506V37.3809C34.9563 37.1996 35.3811 36.9438 35.7554 36.6237C36.8411 35.7648 37.5094 34.6175 37.5899 33.4724C37.6594 32.4856 37.3007 31.5514 36.5528 30.7705L33.015 27.2308Z" fill="#FCCF3C"/>
<path d="M26.996 17.3126C30.1724 18.0981 33.0762 20.9688 33.9008 24.1376C33.9256 24.2331 33.969 24.3227 34.0285 24.4015C34.088 24.4802 34.1625 24.5464 34.2476 24.5964C34.3326 24.6463 34.4268 24.679 34.5245 24.6926C34.6222 24.7062 34.7217 24.7004 34.8172 24.6756C34.9127 24.6508 35.0024 24.6073 35.0811 24.5478C35.1598 24.4883 35.226 24.4139 35.276 24.3288C35.326 24.2437 35.3587 24.1496 35.3723 24.0519C35.3859 23.9541 35.3801 23.8547 35.3552 23.7592C34.8897 21.9697 33.8351 20.1952 32.3857 18.7628C30.9363 17.3304 29.1504 16.2972 27.3568 15.8536C27.261 15.8299 27.1615 15.8253 27.064 15.8401C26.9664 15.8549 26.8727 15.8887 26.7882 15.9397C26.6175 16.0427 26.4948 16.2092 26.447 16.4027C26.3991 16.5961 26.4301 16.8007 26.533 16.9713C26.636 17.142 26.8025 17.2647 26.996 17.3126ZM40.02 23.5805C39.1209 17.5163 33.6707 12.0446 27.6122 11.1235C27.5141 11.1075 27.4138 11.1111 27.3172 11.1341C27.2205 11.1571 27.1293 11.199 27.049 11.2575C26.9686 11.316 26.9006 11.3898 26.849 11.4747C26.7974 11.5597 26.7631 11.654 26.7482 11.7522C26.7332 11.8505 26.7379 11.9507 26.762 12.0471C26.7861 12.1436 26.829 12.2343 26.8884 12.314C26.9477 12.3937 27.0223 12.4608 27.1078 12.5115C27.1933 12.5622 27.288 12.5955 27.3864 12.6093C32.7384 13.423 37.739 18.4436 38.5332 23.8009C38.5469 23.8992 38.5799 23.9939 38.6303 24.0794C38.6808 24.1649 38.7477 24.2395 38.8271 24.299C38.9066 24.3585 38.997 24.4017 39.0933 24.4261C39.1895 24.4504 39.2896 24.4555 39.3878 24.4409C39.486 24.4263 39.5803 24.3925 39.6654 24.3413C39.7504 24.29 39.8244 24.2225 39.8832 24.1425C39.942 24.0625 39.9843 23.9716 40.0078 23.8752C40.0313 23.7787 40.0355 23.6786 40.02 23.5805ZM22.3567 44.839C22.5545 44.8368 22.7435 44.7566 22.8826 44.6159C23.0218 44.4752 23.0998 44.2854 23.0998 44.0875C23.0998 43.8897 23.0218 43.6998 22.8826 43.5591C22.7435 43.4184 22.5545 43.3383 22.3567 43.3361H20.1132C20.0138 43.335 19.9151 43.3536 19.823 43.3908C19.7309 43.4281 19.647 43.4833 19.5763 43.5532C19.5057 43.6231 19.4496 43.7063 19.4113 43.798C19.373 43.8897 19.3533 43.9881 19.3533 44.0875C19.3533 44.1869 19.373 44.2853 19.4113 44.377C19.4496 44.4688 19.5057 44.552 19.5763 44.6219C19.647 44.6918 19.7309 44.7469 19.823 44.7842C19.9151 44.8215 20.0138 44.8401 20.1132 44.839H22.3567ZM25.855 3.5645H16.6149C16.5155 3.56339 16.4169 3.58201 16.3247 3.61927C16.2326 3.65654 16.1487 3.71171 16.0781 3.7816C16.0074 3.85149 15.9513 3.93471 15.913 4.02643C15.8747 4.11815 15.855 4.21656 15.855 4.31595C15.855 4.41535 15.8747 4.51376 15.913 4.60548C15.9513 4.6972 16.0074 4.78041 16.0781 4.8503C16.1487 4.92019 16.2326 4.97537 16.3247 5.01263C16.4169 5.0499 16.5155 5.06852 16.6149 5.06741H25.855C26.0528 5.0652 26.2418 4.98505 26.3809 4.84437C26.52 4.70368 26.5981 4.51381 26.5981 4.31595C26.5981 4.1181 26.52 3.92822 26.3809 3.78754C26.2418 3.64685 26.0528 3.56671 25.855 3.5645Z" fill="#FCCF3C"/>
</svg>
