<svg width="16" height="22" viewBox="0 0 16 22" fill="none" xmlns="http://www.w3.org/2000/svg">
<path d="M3.05726 1.41732L4.22426 1.06632C4.86355 0.873546 5.55115 0.919952 6.15873 1.19688C6.76632 1.47381 7.2524 1.96234 7.52626 2.57132L8.42826 4.57732C8.66373 5.10112 8.7293 5.6855 8.61577 6.24846C8.50225 6.81142 8.21533 7.32471 7.79526 7.71632L6.30026 9.10932C6.25659 9.15002 6.22892 9.205 6.22226 9.26432C6.17826 9.66132 6.44726 10.4343 7.06826 11.5093C7.51826 12.2903 7.92726 12.8393 8.27426 13.1463C8.51726 13.3613 8.65026 13.4073 8.70726 13.3913L10.7173 12.7763C11.2662 12.6084 11.8539 12.6165 12.398 12.7994C12.942 12.9823 13.4153 13.3309 13.7513 13.7963L15.0313 15.5723C15.4209 16.1123 15.6014 16.7753 15.5393 17.4383C15.4771 18.1013 15.1765 18.7192 14.6933 19.1773L13.8063 20.0173C13.336 20.4626 12.7585 20.7786 12.1299 20.9344C11.5013 21.0902 10.843 21.0805 10.2193 20.9063C7.46526 20.1373 4.99626 17.8133 2.78426 13.9823C0.570263 10.1463 -0.207737 6.84232 0.510263 4.06932C0.671439 3.44566 0.990549 2.87402 1.43684 2.40952C1.88312 1.94502 2.44054 1.60331 3.05726 1.41732ZM3.49126 2.85432C3.12115 2.96563 2.78595 3.1704 2.51797 3.44889C2.24999 3.72738 2.05826 4.0702 1.96126 4.44432C1.35926 6.77632 2.04826 9.70532 4.08426 13.2323C6.11826 16.7543 8.30726 18.8153 10.6243 19.4623C10.9985 19.5667 11.3935 19.5724 11.7706 19.4788C12.1477 19.3852 12.4942 19.1956 12.7763 18.9283L13.6623 18.0883C13.8821 17.8801 14.0188 17.5992 14.0472 17.2978C14.0755 16.9963 13.9934 16.6948 13.8163 16.4493L12.5363 14.6743C12.3835 14.4625 12.1683 14.3039 11.9208 14.2207C11.6733 14.1375 11.4059 14.1338 11.1563 14.2103L9.14126 14.8273C7.97126 15.1753 6.91026 14.2343 5.77026 12.2593C5.00026 10.9293 4.64226 9.89932 4.73226 9.09832C4.77826 8.68232 4.97226 8.29832 5.27726 8.01232L6.77226 6.61932C6.96312 6.44122 7.09342 6.20783 7.14489 5.95191C7.19637 5.69598 7.16642 5.43036 7.05926 5.19232L6.15826 3.18632C6.03376 2.90951 5.8128 2.68746 5.5366 2.56159C5.26041 2.43573 4.94785 2.41467 4.65726 2.50232L3.49126 2.85432Z" fill="#171717"/>
</svg>
